<svg width="850" height="410" viewBox="0 0 850 410" fill="none" xmlns="http://www.w3.org/2000/svg">
<g clip-path="url(#clip0_448_1422)">
<mask id="mask0_448_1422" style="mask-type:luminance" maskUnits="userSpaceOnUse" x="0" y="0" width="850" height="410">
<path d="M850 0H0V410H850V0Z" fill="white"/>
</mask>
<g mask="url(#mask0_448_1422)">
<path d="M849.953 -0.671875H-0.046875V409.328H849.953V-0.671875Z" fill="white"/>
<path d="M809.14 -145.935C614.988 -123.875 548.75 -216.999 451.452 -207.279C422.905 -204.43 392.347 -192.203 355.419 -165.316C321.643 -140.725 271.868 -150.056 217.249 -168.607C135.215 -196.463 45.3506 -241.175 -17.5526 -202.636C-129.129 -134.269 -228.003 -129.824 -310.463 -141.167C-384.763 -151.395 -446.342 -184.514 -500.642 -214.823C-521.87 -226.72 -542.113 -236.381 -561.495 -243.892C-687.321 -292.773 -763.265 -238.491 -842.032 -144.721C-886.442 -91.8513 -1097.04 -113.733 -1104.39 -43.6638C-1111.59 24.796 -668.886 79.5585 -196.382 69.6202C276.121 59.6886 695.311 23.998 865.605 -0.593689C1098.74 -34.1871 1023.93 -170.335 809.14 -145.935Z" fill="url(#paint0_linear_448_1422)"/>
<path d="M762.419 -122.793C578.794 -104.823 514.595 -186.815 422.324 -177.754C394.821 -175.069 365.521 -163.997 330.294 -139.893C300.21 -119.469 257.579 -125.424 210.201 -140.144C206.45 -141.305 202.68 -142.525 198.89 -143.784C119.157 -170.084 38.5825 -211.387 -23.8663 -177.536C-94.213 -139.306 -158.943 -122.661 -224.234 -117.089C-258.755 -114.141 -290.908 -115.928 -320.837 -118.579C-403.054 -125.853 -461.076 -152.885 -514.979 -181.532C-536.768 -193.113 -556.325 -203.011 -575.823 -211.05C-614.172 -226.864 -648.78 -232.661 -682.663 -231.415C-716.584 -230.168 -744.764 -219.788 -769.811 -203.836C-799.044 -185.219 -829.582 -160.152 -862.885 -125.721C-909.48 -77.5534 -1096.72 -92.6224 -1119.13 -25.6596C-1127.3 -1.246 -1093.63 16.8367 -1030.66 35.2228C-1017.13 39.173 -1002.17 43.8948 -984.592 47.9506C-911.036 64.9385 -806.062 76.9343 -683.117 84.848C-533.259 94.2982 -433.167 99.1981 -225.037 94.3708C178.3 85.3096 465.468 62.7161 667.17 45.3852C733.05 39.7204 793.063 34.504 837.318 26.6167C901.575 15.1551 940.61 -5.42703 958.504 -26.4114C980.786 -52.5463 970.588 -81.7477 923.625 -103.088C887.422 -119.535 833.065 -129.698 762.428 -122.787L762.419 -122.793Z" fill="url(#paint1_linear_448_1422)"/>
<path d="M684.513 -100.787C511.532 -86.6411 449.257 -157.765 362.012 -149.363C335.544 -146.838 307.635 -136.834 273.985 -115.605C245.235 -97.4697 204.914 -103.108 160.078 -116.726C156.511 -117.808 152.934 -118.942 149.348 -120.096C72.0507 -145.018 0.650269 -182.733 -61.3442 -153.584C-131.024 -120.63 -194.633 -105.021 -265.444 -97.9577C-300.351 -94.4757 -332.591 -95.788 -362.365 -97.1333C-452.79 -101.202 -506.964 -122.404 -560.48 -149.39C-582.821 -160.654 -601.71 -170.77 -621.325 -179.35C-657.421 -195.144 -691.227 -201.811 -726.946 -202.853C-763.536 -203.915 -791.87 -194.854 -815.515 -180.919C-843.811 -164.248 -876.427 -142.901 -914.902 -107.87C-962.85 -64.2125 -1131.46 -72.39 -1165.02 -8.80373C-1179.85 19.2898 -1152.16 35.5062 -1097.26 55.0793C-1085 59.4516 -1071.33 65.3802 -1053.58 70.2339C-984.649 89.0948 -877.529 101.295 -748.881 109.011C-585.721 118.481 -541.62 124.264 -284.865 117.966C166.894 107.303 416.37 84.0894 607.95 70.3526C669.51 65.9408 731.698 62.4324 777.867 52.6656C839.591 39.6081 876.007 16.4804 891.725 -5.44043C909.329 -29.9926 900.406 -57.2419 847.363 -79.5782C809.517 -95.5176 755.865 -106.623 684.532 -100.793L684.513 -100.787Z" fill="url(#paint2_linear_448_1422)"/>
<path d="M649.363 -69.8727C487.131 -59.2948 426.674 -119.815 344.466 -112.066C319.032 -109.705 292.438 -100.809 260.44 -82.4159C232.957 -66.6084 195.014 -71.8973 152.72 -84.4075C149.337 -85.4033 145.954 -86.4518 142.57 -87.5136C67.6122 -110.938 5.46313 -145.171 -56.077 -120.718C-125.09 -93.0466 -187.577 -78.5316 -263.908 -69.9189C-299.202 -65.9357 -331.683 -68.4812 -361.158 -66.7798C-459.607 -61.1018 -510.155 -82.9896 -563.237 -108.333C-586.148 -119.274 -604.351 -129.594 -624.081 -138.741C-657.973 -154.45 -690.938 -162.106 -728.494 -165.384C-767.762 -168.807 -796.289 -161.025 -818.484 -149.102C-845.9 -134.376 -880.208 -116.728 -924.193 -81.1167C-972.808 -41.7595 -1125.97 -43.4873 -1168.19 16.9533C-1190.39 48.7464 -1167.9 63.3867 -1121.16 83.8369C-1110.09 88.684 -1097.8 95.7206 -1079.86 101.425C-1015.48 121.882 -906.29 134.557 -771.928 142.088C-595.457 151.578 -607.357 158.245 -301.967 150.476C198.223 138.21 409.979 114.324 591.448 104.241C648.667 101.062 713.049 99.374 761.123 87.642C820.353 73.1864 854.061 47.5462 867.653 24.4515C880.994 1.77225 873.018 -23.8878 813.818 -47.1539C774.405 -62.6449 721.421 -74.5814 649.363 -69.8793V-69.8727Z" fill="url(#paint3_linear_448_1422)"/>
<path d="M575.217 -45.6027C423.803 -38.3419 365.095 -88.5013 287.914 -81.412C263.524 -79.216 238.216 -71.4276 207.9 -55.8641C181.664 -42.3911 146.119 -47.3173 106.368 -58.7262C103.168 -59.6363 99.9877 -60.5991 96.7975 -61.5619C24.1693 -83.4893 -28.7865 -114.359 -89.8046 -94.4959C-158.228 -72.219 -219.526 -58.7328 -301.377 -48.5176C-337.067 -44.0661 -369.867 -45.9061 -398.946 -43.0637C-505.196 -32.6705 -552.39 -50.1728 -604.998 -73.9138C-628.498 -84.5181 -646.015 -95.0367 -665.842 -104.764C-697.569 -120.341 -729.654 -129.072 -769.037 -134.539C-810.982 -140.362 -839.761 -133.84 -860.448 -123.902C-887.042 -111.121 -922.636 -97.0744 -972.469 -60.9816C-1021.19 -25.6933 -1160.92 -21.5913 -1210.35 36.0926C-1240.61 71.4073 -1222.64 85.0452 -1184.03 105.977C-1174.09 111.365 -1163.24 119.397 -1145.11 125.992C-1085.2 147.801 -974.016 161.194 -833.951 168.541C-644.168 178.05 -712.069 185.601 -358.054 176.369C190.558 162.507 364.564 137.895 535.96 131.505C588.828 129.533 655.444 129.797 705.403 115.994C762.196 100.299 799.985 73.2341 804.606 47.7257C819.56 28.7197 806.723 2.78271 741.296 -21.3473C700.357 -36.4492 648.039 -49.0847 575.217 -45.5895V-45.6027Z" fill="url(#paint4_linear_448_1422)"/>
<path d="M558.823 -17.9522C418.284 -13.7514 361.258 -53.8143 289.113 -47.3778C265.758 -45.34 241.716 -38.6794 213.102 -25.9318C188.093 -14.7933 154.964 -19.3569 117.756 -29.6644C114.74 -30.4953 111.753 -31.3658 108.766 -32.2364C38.4576 -52.6404 -5.20825 -80.0744 -65.7816 -64.8934C-133.528 -47.912 -193.734 -35.6062 -281.085 -23.7358C-317.172 -18.8293 -349.846 -17.8137 -378.983 -15.9672C-494.639 -8.64046 -536.903 -13.9492 -588.998 -36.1206C-613.098 -46.3754 -629.948 -57.072 -649.833 -67.4192C-679.433 -82.8112 -710.59 -92.7033 -751.81 -100.333C-796.423 -108.59 -825.55 -103.334 -844.642 -95.3412C-870.511 -84.5258 -906.936 -73.8952 -962.986 -37.4857C-1011.4 -6.03555 -1138.91 3.263 -1194.74 58.5927C-1233.65 97.1454 -1219.81 110.539 -1189.14 131.477C-1180.32 137.498 -1170.88 146.375 -1152.6 153.926C-1097.03 176.882 -983.982 191.199 -838.214 198.361C-635.12 207.89 -759.031 216.325 -356.372 205.622C240.672 190.157 376.89 164.748 538.251 162.136C586.77 161.352 655.676 163.699 707.453 147.707C761.878 130.904 798.593 101.175 799.328 74.3606C811.189 57.4584 798.255 32.748 726.535 7.81995C684.107 -6.92583 632.437 -20.135 558.823 -17.939V-17.9522Z" fill="url(#paint5_linear_448_1422)"/>
<path d="M561.981 3.78014C432.763 10.9816 376.984 -25.0388 309.876 -19.2618C287.564 -17.3889 264.76 -11.8559 237.866 -1.91769C214.066 6.87965 183.373 2.68541 148.717 -6.52081C145.885 -7.26601 143.091 -8.05078 140.307 -8.82236C72.29 -27.6898 37.9333 -51.7078 -22.2051 -41.2156C-89.265 -29.5166 -148.408 -18.4572 -241.24 -4.87872C-277.733 0.456406 -310.523 2.46119 -339.466 5.20459C-463.465 16.9564 -501.901 16.3892 -553.445 -4.24563C-578.164 -14.1377 -594.346 -25.0058 -614.28 -35.9926C-641.811 -51.1604 -671.963 -62.2725 -715.048 -72.0459C-762.301 -82.7623 -791.882 -78.7857 -809.302 -72.7054C-834.533 -63.8948 -871.345 -56.3768 -933.958 -19.9081C-981.742 7.92162 -1097.75 21.8233 -1159.59 75.1745C-1207.63 116.622 -1202.78 133.709 -1174.7 151.06C-1168.93 158.644 -1158.92 167.382 -1140.54 175.935C-1089.15 199.861 -974.395 215.279 -822.923 222.256C-606.517 231.806 -786.43 241.124 -335.145 228.95C310.33 211.883 408.731 185.583 560.077 186.836C604.226 187.206 675.511 191.769 729.047 173.495C781.19 155.696 816.755 123.184 813.594 95.0642C822.372 80.2722 809.37 56.7093 731.328 31.0559C687.43 16.6266 636.176 -0.348152 561.991 3.78674L561.981 3.78014Z" fill="url(#paint6_linear_448_1422)"/>
<path d="M590.412 25.6858C471.807 29.5371 417.982 3.91001 355.9 9.02751C334.623 10.7355 313.047 15.121 287.893 22.2697C265.282 28.6995 237.044 24.901 204.931 16.7961C202.282 16.1366 199.672 15.4442 197.1 14.7649C131.375 -2.52643 106.356 -23.1415 46.6432 -17.3579C-19.7303 -10.9281 -77.8291 -1.16792 -176.123 14.1582C-213.032 19.9088 -245.899 22.9687 -274.669 26.5497C-406.874 43.0299 -441.647 46.9273 -492.621 27.8027C-517.968 18.2865 -533.522 7.26672 -553.455 -4.38614C-578.957 -19.2902 -608.045 -31.6817 -653.006 -43.5785C-702.888 -56.7746 -733.02 -54.1433 -748.69 -49.8831C-773.399 -43.1631 -810.124 -38.3225 -879.658 -2.15053C-926.621 22.2763 -1031.47 40.2205 -1099.17 91.9363C-1156.75 135.923 -1151.19 151.196 -1135 170.816C-1128.71 178.439 -1121.63 188.503 -1103.23 198.118C-1055.85 222.881 -939.565 239.539 -782.379 246.319C-552.672 255.887 -788.576 266.089 -288.666 252.445C405.231 233.782 465.814 206.453 607.165 211.709C646.954 213.187 720.714 220.131 775.893 199.456C825.823 180.747 860.16 145.373 853.113 115.948C858.797 103.259 845.766 80.7912 761.373 54.4783C716.015 40.3326 665.554 23.2523 590.412 25.6924V25.6858Z" fill="url(#paint7_linear_448_1422)"/>
<path d="M632.302 50.148C524.457 46.633 472.439 35.4088 415.385 39.88C395.151 41.4232 374.764 44.6216 351.379 49.0203C329.938 53.0563 304.166 49.6732 274.604 42.6762C272.139 42.0958 269.722 41.4957 267.354 40.9088C203.9 25.2266 188.239 7.99458 128.961 9.05632C63.2737 10.2302 6.19983 18.6253 -97.5368 35.7451C-134.861 41.9046 -167.777 46.0593 -196.411 50.4513C-336.66 71.9567 -367.942 80.0682 -418.327 62.401C-444.321 53.2871 -459.266 42.1222 -479.161 29.7637C-502.681 15.1498 -530.638 1.43943 -577.494 -12.5611C-629.986 -28.25 -660.746 -27.0563 -674.599 -24.5108C-698.892 -20.0527 -735.066 -17.2698 -811.889 18.157C-857.914 39.3854 -951.732 60.8776 -1025.28 111.241C-1092.71 157.418 -1091.82 174.491 -1081.83 193.121C-1077.24 201.688 -1070.78 212.114 -1052.43 222.857C-1008.88 248.359 -891.246 266.349 -728.357 272.944C-485.338 282.533 -777.243 293.618 -228.699 278.503C513.63 258.238 536.415 229.715 667.732 239.139C703.152 241.685 779.521 251.161 836.228 227.968C884.041 208.415 917.063 170.112 906.12 139.374C908.721 128.79 895.68 107.357 804.897 80.4375C758.089 66.5556 708.314 52.6144 632.302 50.1348V50.148Z" fill="url(#paint8_linear_448_1422)"/>
<path d="M660.974 64.9448C563.927 59.3129 513.678 57.2488 461.66 61.0605C442.461 62.4454 423.273 64.404 401.667 66.0989C381.385 67.6948 358.098 64.7799 331.078 58.8843C328.787 58.3897 326.573 57.8819 324.408 57.3873C263.187 43.3735 256.884 29.5246 198.06 25.8052C133.04 21.8022 76.991 28.72 -32.1785 47.6733C-69.9282 54.2284 -102.835 59.5305 -131.372 64.6942C-279.47 91.5017 -307.485 103.577 -357.251 87.3471C-383.893 78.6552 -398.297 67.3585 -418.085 54.268C-439.681 39.9772 -466.439 24.9149 -515.209 8.804C-570.282 -9.39081 -601.71 -9.75352 -613.736 -8.79069C-637.632 -6.87823 -672.917 -5.31528 -757.339 28.8124C-802.426 47.0402 -885.127 71.6384 -964.609 120.901C-1042.11 168.943 -1046.38 187.943 -1041.88 205.782C-1039.48 215.271 -1033.03 226.027 -1014.86 237.944C-974.933 264.125 -856.145 283.507 -687.553 289.917C-431.223 299.525 -779.128 311.495 -181.959 294.909C608.792 273.041 593.856 243.088 715.071 256.924C746.15 260.471 825.246 272.652 883.325 246.84C929.118 226.489 954.348 186.274 945.89 153.169C943.753 144.813 932.385 124.231 835.193 96.7643C786.945 83.1264 737.721 69.4028 660.974 64.9514V64.9448Z" fill="url(#paint9_linear_448_1422)"/>
<path d="M895.486 112.156C845.797 98.749 797.008 85.5793 719.643 78.8263C567.803 65.571 533.505 96.8761 417.53 74.1771C352.152 61.3833 357.449 50.3372 297.137 41.6322C232.784 32.3468 177.74 37.8534 63.1665 58.6795C-183.748 103.563 -208.07 128.913 -266.208 111.365C-320.99 94.8317 -321.851 65.5446 -422.939 29.2341C-480.583 8.52669 -512.561 6.46255 -522.886 5.98773C-546.203 4.91279 -580.501 6.35703 -672.811 38.5326C-717.038 53.9511 -788.419 81.24 -873.953 129.625C-961.661 179.237 -971.464 199.925 -971.937 217.507C-972.218 227.775 -965.17 238.953 -947.296 252.096C-910.794 278.936 -791.068 299.73 -616.762 305.955C-347.12 315.583 -751.037 328.436 -105.223 310.38C733.96 286.916 681.487 255.195 792.416 273.766C819.203 278.251 901.131 293.313 960.438 264.771C1004.31 243.661 1034.4 199.371 1015.68 166.015C1012.1 159.645 999.125 140.111 895.505 112.143L895.486 112.156Z" fill="url(#paint10_linear_448_1422)"/>
<path d="M902.689 140.336C853 126.929 804.211 113.759 726.846 107.006C575.006 93.7507 540.708 125.056 424.733 102.357C359.355 89.563 364.652 78.5169 304.34 69.8118C239.987 60.5265 184.943 66.0331 70.3696 86.8592C-176.545 131.743 -200.867 157.093 -259.004 139.544C-313.787 123.011 -314.648 93.7243 -415.736 57.4138C-473.38 36.7064 -505.358 34.6422 -515.683 34.1674C-538.999 33.0925 -573.298 34.5367 -665.608 66.7123C-709.835 82.1308 -781.216 109.42 -866.749 157.805C-954.458 207.417 -964.26 228.105 -964.734 245.686C-965.015 255.954 -957.967 267.132 -940.093 280.276C-903.59 307.116 -783.865 327.909 -609.559 334.135C-339.917 343.763 -743.834 356.616 -98.0199 338.56C741.163 315.096 688.69 283.375 799.619 301.946C826.406 306.43 908.334 321.493 967.641 292.951C1011.51 271.841 1041.6 227.551 1022.88 194.195C1019.3 187.824 1006.33 168.291 902.708 140.323L902.689 140.336Z" fill="url(#paint11_linear_448_1422)"/>
<path d="M945.841 170.183C896.153 156.776 847.363 143.607 769.998 136.854C618.159 123.598 583.86 154.903 467.885 132.204C402.507 119.411 407.805 108.365 347.492 99.6595C283.139 90.3741 228.095 95.8807 113.522 116.707C-133.393 161.59 -157.715 186.941 -215.852 169.392C-270.635 152.859 -271.495 123.572 -372.583 87.2614C-430.228 66.554 -462.206 64.4899 -472.53 64.0151C-495.847 62.9401 -530.146 64.3844 -622.456 96.56C-666.682 111.978 -738.063 139.267 -823.597 187.653C-911.306 237.265 -921.108 257.952 -921.582 275.534C-921.862 285.802 -914.815 296.98 -896.941 310.123C-860.438 336.964 -740.712 357.757 -566.407 363.982C-296.765 373.611 -700.681 386.464 -54.8676 368.407C784.315 344.943 731.843 313.223 842.771 331.793C869.559 336.278 951.487 351.34 1010.79 322.798C1054.66 301.689 1084.76 257.398 1066.03 224.042C1062.45 217.672 1049.48 198.138 945.86 170.17L945.841 170.183Z" fill="url(#paint12_linear_448_1422)"/>
<path d="M907.181 191.648C857.493 178.241 808.703 165.072 731.338 158.319C579.499 145.063 545.2 176.368 429.225 153.669C363.847 140.876 369.145 129.829 308.832 121.124C244.479 111.839 189.435 117.346 74.8618 138.172C-172.053 183.055 -196.375 208.405 -254.512 190.857C-309.295 174.324 -310.156 145.037 -411.243 108.726C-468.888 88.0189 -500.866 85.9547 -511.19 85.4799C-534.507 84.405 -568.806 85.8492 -661.116 118.025C-705.342 133.443 -776.724 160.732 -862.257 209.118C-949.966 258.73 -959.768 279.417 -960.242 296.999C-960.522 307.267 -953.475 318.445 -935.601 331.588C-899.098 358.429 -779.372 379.222 -605.067 385.447C-335.425 395.075 -739.341 407.928 -93.5277 389.872C745.655 366.408 693.182 334.688 804.111 353.258C830.899 357.743 912.826 372.805 972.133 344.263C1016 323.153 1046.1 278.863 1027.37 245.507C1023.79 239.137 1010.82 219.603 907.2 191.635L907.181 191.648Z" fill="url(#paint13_linear_448_1422)"/>
<path d="M920.956 174.787C818.65 161.334 759.759 177.774 689.528 180.531C658.188 181.764 630.608 179.634 602.989 168.37C584.902 160.991 565.191 159.692 544.668 160.259C515.918 161.063 484.723 166.187 453.479 169.168C431.013 171.312 432.618 168.496 381.731 156.289C321.65 141.873 284.993 135.529 255.306 134.605C199.672 132.878 166.272 152.859 108.338 168.641C-16.5499 202.669 -159.138 178.355 -202.166 170.645C-224.178 166.702 -243.405 162.409 -260.516 157.839C-341.98 136.287 -385.211 108.866 -478.584 106.321C-506.145 105.569 -534.305 108.075 -582.92 114.452C-722.473 132.673 -833.895 153.288 -888.117 207.127C-928.119 246.847 -965.24 275.594 -889.983 312.854C-824.943 345.056 -739.758 361.602 -556.897 362.802C-451.198 363.719 -322.781 363.343 -175.408 362.123C-131.317 361.773 -87.0706 361.404 -42.9891 361.002C396.386 357.269 792.433 357.276 936.017 319.04C972.848 309.227 998.234 294.593 1013.93 279.148C1056.73 237.061 1031.52 189.341 920.956 174.8V174.787Z" fill="url(#paint14_linear_448_1422)"/>
<path d="M881.506 203.527C777.209 189.414 721.556 200.671 650.127 203.547C618.206 204.833 590.588 203.639 563.124 194.552C544.93 188.537 525.374 188.412 505.025 189.751C476.517 191.637 445.505 197.216 414.291 200.678C391.602 203.197 390.916 200.935 341.923 190.199C283.235 177.333 245.688 171.938 214.483 171.081C158.85 169.544 123.469 187.548 65.6793 201.562C-58.8897 231.772 -199.293 207.649 -246.004 199.155C-268.055 195.145 -287.408 190.865 -304.606 186.361C-387.384 164.915 -432.674 138.193 -523.998 135.344C-552.168 134.467 -580.898 136.828 -628.73 143.231C-765.528 161.459 -876.486 185.457 -926.648 238.209C-962.455 275.858 -996.415 302.606 -925.865 338.105C-857.162 372.675 -778.965 389.162 -591.309 390.111C-486.432 390.889 -357.629 390.316 -206.582 388.99C-162.008 388.614 -117.394 388.258 -73.0325 387.882C378.987 384.4 774.792 387.282 912.334 343.559C947.329 332.434 970.414 317.147 983.986 301.63C1020.23 260.202 992.058 218.497 881.516 203.54L881.506 203.527Z" fill="url(#paint15_linear_448_1422)"/>
<path d="M843.631 225.432C737.352 210.66 684.928 216.74 612.29 219.734C579.79 221.073 552.074 220.822 524.814 213.911C506.485 209.262 487.112 210.317 466.947 212.42C438.681 215.388 407.862 221.429 376.667 225.372C353.756 228.268 350.769 226.573 303.69 217.294C246.375 205.997 207.949 201.533 175.235 200.735C119.592 199.383 82.2389 215.421 24.5849 227.654C-99.665 254.053 -237.884 230.121 -288.278 220.829C-310.367 216.76 -329.836 212.486 -347.121 208.048C-431.204 186.701 -478.553 160.665 -567.828 157.526C-596.597 156.517 -625.908 158.733 -672.957 165.176C-806.99 183.417 -917.484 210.732 -963.586 262.455C-995.245 297.974 -1026.05 322.849 -960.154 356.522C-887.806 393.492 -816.579 409.886 -624.138 410.585C-520.083 411.231 -390.883 410.447 -236.173 409.015C-191.115 408.613 -146.134 408.264 -101.502 407.914C363.162 404.683 758.726 410.499 890.216 361.23C923.374 348.806 944.178 332.886 955.614 317.257C985.369 276.587 954.183 240.791 843.641 225.432H843.631Z" fill="url(#paint16_linear_448_1422)"/>
<path d="M844.393 245.183C736.123 229.739 686.937 230.655 613.091 233.761C580.01 235.153 552.16 235.878 525.141 231.11C506.648 227.846 487.488 230.055 467.506 232.93C439.491 236.973 408.856 243.489 377.671 247.9C354.537 251.171 349.23 250.063 304.085 242.222C248.123 232.502 208.846 228.947 174.605 228.228C118.962 227.054 79.6272 241.128 22.1182 251.593C-101.803 274.174 -237.847 250.446 -291.934 240.356C-314.071 236.228 -333.647 231.935 -351.028 227.582C-436.359 206.222 -485.825 180.971 -573.05 177.561C-602.428 176.414 -632.309 178.498 -678.585 184.967C-809.862 203.215 -919.912 233.788 -961.934 284.547C-989.533 317.883 -1017.16 340.998 -955.863 372.784C-879.9 412.175 -815.605 428.45 -618.378 428.905C-515.145 429.413 -385.558 428.424 -227.174 426.894C-181.643 426.472 -136.295 426.122 -91.382 425.806C385.926 422.825 781.268 431.636 906.697 376.761C938.028 363.057 956.559 346.531 965.83 330.743C989.195 290.944 954.887 260.945 844.364 245.177L844.393 245.183Z" fill="url(#paint17_linear_448_1422)"/>
<path d="M831.809 270.843C721.557 254.726 675.6 250.479 600.555 253.703C566.895 255.154 538.88 256.882 512.141 254.224C493.464 252.371 474.546 255.715 454.738 259.355C426.965 264.479 396.523 271.463 365.357 276.343C342.011 279.997 334.365 279.489 291.163 273.072C236.535 264.954 196.417 262.283 160.668 261.643C105.025 260.641 63.708 272.756 6.34399 281.454C-117.258 300.223 -251.117 276.699 -308.887 265.805C-331.063 261.624 -350.755 257.331 -368.233 253.044C-454.869 231.783 -506.403 207.184 -591.57 203.524C-621.557 202.232 -652.008 204.19 -697.501 210.693C-826.014 228.947 -935.667 262.692 -973.571 312.574C-997.187 343.655 -1021.61 365.121 -964.851 394.982C-885.301 436.832 -827.918 452.956 -625.907 453.161C-523.495 453.536 -393.512 452.336 -231.464 450.701C-185.449 450.252 -139.734 449.909 -94.5408 449.619C395.412 446.896 790.57 458.766 909.899 398.213C939.403 383.243 955.721 366.137 962.778 350.158C979.917 311.335 942.332 287.013 831.809 270.856V270.843Z" fill="url(#paint18_linear_448_1422)"/>
<path d="M839.592 290.946C727.349 274.143 684.63 264.746 608.377 268.089C574.136 269.593 545.909 270.819 519.489 271.776C500.629 272.461 481.942 275.805 462.308 280.217C434.777 286.416 404.529 293.881 373.382 299.223C349.823 303.265 339.818 303.371 298.578 298.352C245.265 291.863 204.335 290.05 167.069 289.482C111.425 288.638 68.127 298.807 10.908 305.738C-112.375 320.695 -244.059 297.383 -305.512 285.671C-327.737 281.437 -347.554 277.17 -365.1 272.923C-453.108 251.886 -506.634 227.802 -589.751 223.898C-620.347 222.46 -651.369 224.287 -696.078 230.822C-821.836 249.09 -931.151 285.915 -964.86 335.012C-984.609 363.778 -1005.74 383.694 -953.491 411.59C-870.413 455.94 -819.884 471.872 -613.078 471.833C-511.487 472.07 -381.118 470.672 -215.406 468.931C-168.918 468.456 -122.825 468.12 -77.3615 467.863C425.236 465.39 820.258 480.38 933.44 414.096C961.135 397.873 975.288 380.206 980.054 363.996C991.171 326.228 950.105 307.499 839.592 290.953V290.946Z" fill="url(#paint19_linear_448_1422)"/>
<path d="M883.248 302.05C769.023 284.554 729.533 270.013 652.072 273.468C617.251 275.025 588.869 278.896 562.71 280.327C543.637 281.375 525.212 286.902 505.761 292.078C478.472 299.359 448.417 307.306 417.289 313.102C393.508 317.527 381.144 318.279 341.877 314.632C289.868 309.805 248.136 308.803 209.352 308.328C153.709 307.642 108.419 315.872 51.3448 321.029C-71.6194 332.168 -201.138 309.086 -266.255 296.55C-288.528 292.263 -308.451 287.996 -326.094 283.809C-415.417 262.877 -470.983 239.413 -552.069 235.285C-583.265 233.695 -614.866 235.404 -658.803 241.972C-781.796 260.246 -890.898 300.058 -920.305 348.463C-936.323 374.836 -954.072 393.314 -906.288 419.211C-819.729 466.113 -776.005 481.802 -564.414 481.512C-463.645 481.617 -332.889 480.008 -163.504 478.162C-116.532 477.667 -70.0823 477.331 -24.3284 477.1C490.913 474.877 885.887 493.039 992.833 420.972C1018.74 403.509 1030.81 385.288 1033.19 368.828C1038.52 332.161 993.752 318.972 883.239 302.05H883.248Z" fill="url(#paint20_linear_448_1422)"/>
<path d="M951.146 322.034C834.948 303.845 798.678 284.16 720.017 287.735C684.617 289.344 656.07 294.349 630.192 297.765C610.945 300.311 592.742 306.879 573.475 312.827C546.427 321.19 516.566 329.618 485.457 335.869C461.464 340.69 446.722 342.108 409.436 339.806C358.723 336.674 316.188 336.45 275.896 336.067C220.253 335.533 172.981 341.824 116.052 345.214C-6.59296 352.541 -133.936 329.69 -202.736 316.323C-225.057 311.983 -245.097 307.717 -262.826 303.595C-353.455 282.762 -411.08 259.911 -490.117 255.572C-521.921 253.825 -554.093 255.42 -597.247 262.015C-717.485 280.296 -826.567 322.99 -851.469 370.808C-863.92 394.721 -878.16 411.86 -834.803 435.727C-744.852 485.246 -707.847 500.619 -491.461 500.084C-391.504 500.051 -260.361 498.238 -87.3124 496.292C-39.8571 495.771 6.96021 495.442 52.9848 495.244C580.871 493.279 975.893 514.639 1076.51 436.762C1100.66 418.072 1110.71 399.278 1110.6 382.573C1110.38 347.008 1061.67 339.351 951.146 322.053V322.034Z" fill="url(#paint21_linear_448_1422)"/>
<path d="M1011.2 346.87C893.021 327.976 859.979 303.153 780.11 306.846C744.129 308.508 715.467 314.674 689.811 320.049C670.418 324.111 652.418 331.709 633.317 338.422C606.51 347.859 576.852 356.782 545.743 363.482C521.537 368.698 504.417 370.815 469.113 369.819C419.685 368.428 376.368 368.929 334.558 368.639C278.915 368.25 229.661 372.609 172.877 374.231C50.551 377.74 -74.627 355.133 -147.091 340.921C-169.46 336.536 -189.606 332.263 -207.432 328.2C-299.375 307.473 -359.04 285.216 -436.037 280.679C-468.441 278.766 -501.193 280.25 -543.563 286.878C-661.047 305.165 -770.429 350.629 -790.497 397.972C-799.565 419.365 -810.141 435.246 -771.183 457.061C-677.935 509.284 -647.551 524.261 -426.38 523.476C-327.245 523.311 -195.716 521.287 -18.9933 519.236C28.9356 518.688 76.1299 518.365 122.435 518.194C662.965 516.479 1058.13 541.071 1152.32 457.351C1174.72 437.435 1182.88 418.047 1180.16 401.125C1174.61 366.595 1121.72 364.537 1011.21 346.863L1011.2 346.87Z" fill="url(#paint22_linear_448_1422)"/>
<path d="M1108.44 363.433C988.338 343.695 958.457 313.88 877.4 317.692C840.839 319.413 812.109 326.746 786.626 334.066C767.118 339.665 749.283 348.265 730.365 355.75C703.809 366.268 674.344 375.679 643.245 382.828C618.836 388.44 599.27 390.207 566.006 391.566C517.961 393.531 473.764 393.142 430.427 392.951C374.783 392.707 323.548 395.133 266.9 394.988C144.892 394.685 21.8701 372.322 -54.2575 357.267C-76.6753 352.835 -96.9374 348.555 -114.841 344.559C-208.089 323.93 -269.812 302.26 -344.761 297.532C-377.773 295.448 -411.096 296.833 -452.693 303.493C-567.411 321.794 -677.595 369.928 -692.347 416.889C-698.263 435.724 -704.963 450.397 -670.393 470.148C-574.004 525.194 -550.088 539.657 -324.131 538.621C-225.818 538.318 -93.8923 536.095 86.494 533.939C134.906 533.372 182.468 533.049 229.044 532.91C782.218 531.446 1177.63 559.282 1265.29 469.706C1285.98 448.57 1292.32 428.536 1286.86 411.436C1276.16 377.842 1218.98 381.35 1108.42 363.439L1108.44 363.433Z" fill="url(#paint23_linear_448_1422)"/>
<path d="M1179.66 375.451C1057.57 355.034 1030.92 320.062 948.654 323.986C911.514 325.76 882.764 334.28 857.417 343.526C837.832 350.668 820.122 360.264 801.387 368.52C775.074 380.114 745.821 390.025 714.723 397.616C690.101 403.63 668.234 407.238 636.865 408.761C590.057 411.03 545.115 412.797 500.27 412.711C444.627 412.606 391.41 413.114 334.906 411.195C213.218 407.073 92.3127 385.073 12.5697 369.061C-9.90607 364.609 -30.2648 360.297 -48.2647 356.366C-142.827 335.843 -206.591 314.747 -279.509 309.84C-313.121 307.578 -347.023 308.864 -387.837 315.558C-499.801 333.865 -611.59 384.638 -620.203 431.256C-623.21 447.525 -625.829 461.024 -595.601 478.678C-496.272 536.699 -478.62 550.495 -247.869 549.215C-150.377 548.78 -18.065 546.347 165.995 544.085C214.881 543.491 262.81 543.181 309.675 543.062C875.494 541.856 1271.25 572.93 1352.27 477.498C1371.26 455.135 1375.85 434.388 1367.59 417.183C1351.85 384.387 1290.21 393.751 1179.65 375.445L1179.66 375.451Z" fill="url(#paint24_linear_448_1422)"/>
<path d="M1258.42 393.507C1134.36 372.41 1110.93 332.282 1027.46 336.324C989.74 338.151 961.019 347.852 935.75 359.036C916.126 367.722 898.512 378.319 879.952 387.341C853.88 400.016 824.85 410.449 793.741 418.455C768.926 424.891 744.72 429.283 715.274 432C669.83 436.195 624.028 438.45 577.665 438.516C522.021 438.503 466.823 437.131 410.464 433.445C289.105 425.511 170.365 403.716 86.9484 386.892C64.4243 382.382 43.9496 378.069 25.8627 374.204C-70.005 353.787 -135.808 333.251 -206.696 328.18C-240.908 325.733 -275.39 326.933 -315.421 333.66C-424.62 351.973 -539.289 405.483 -540.508 451.659C-540.875 465.429 -539.173 477.695 -513.256 493.252C-411.289 554.471 -399.601 567.37 -164.065 565.847C-67.3949 565.273 65.3137 562.635 253.037 560.274C302.406 559.654 350.703 559.351 397.839 559.265C976.303 558.309 1372.49 592.615 1446.8 491.34C1464.11 467.75 1466.98 446.218 1455.85 428.986C1435.11 396.837 1368.97 412.216 1258.41 393.514L1258.42 393.507Z" fill="url(#paint25_linear_448_1422)"/>
<path d="M1545.33 494.472C1560.98 469.65 1562.13 447.268 1548.13 430.075C1522.37 398.427 1451.74 419.959 1341.2 400.86C1215.14 379.085 1194.96 333.799 1110.28 337.954C1042.16 341.297 1004.52 373.097 962.535 395.453C739.507 514.21 292.312 420.717 103.999 381.347C-42.3018 350.76 -122.113 320.933 -239.006 341.06C-345.449 359.386 -464.866 416.068 -456.813 461.367C-454.773 472.835 -448.548 483.677 -426.913 497.13C-281.27 587.722 -327.198 574.414 344.088 565.761C1015.36 557.109 1472.41 610.157 1545.34 494.479L1545.33 494.472Z" fill="url(#paint26_linear_448_1422)"/>
<path d="M849.972 -1.42578H-219.836V411.43H849.972V-1.42578Z" fill="url(#paint27_linear_448_1422)"/>
</g>
</g>
<defs>
<linearGradient id="paint0_linear_448_1422" x1="-47.8006" y1="70.7941" x2="-47.8006" y2="-262.219" gradientUnits="userSpaceOnUse">
<stop stop-color="white"/>
<stop offset="0.29" stop-color="#FCFDFD"/>
<stop offset="0.43" stop-color="#F5F7FA"/>
<stop offset="0.53" stop-color="#E8EDF4"/>
<stop offset="0.63" stop-color="#D5DFEB"/>
<stop offset="0.71" stop-color="#BDCDE0"/>
<stop offset="0.78" stop-color="#9FB7D1"/>
<stop offset="0.85" stop-color="#7C9DC1"/>
<stop offset="0.91" stop-color="#537EAD"/>
<stop offset="0.97" stop-color="#265C98"/>
<stop offset="1" stop-color="#0A478B"/>
</linearGradient>
<linearGradient id="paint1_linear_448_1422" x1="-75.2755" y1="96.2503" x2="-75.2755" y2="-231.58" gradientUnits="userSpaceOnUse">
<stop stop-color="white"/>
<stop offset="0.29" stop-color="#FCFDFD"/>
<stop offset="0.43" stop-color="#F5F7FA"/>
<stop offset="0.53" stop-color="#E8EDF4"/>
<stop offset="0.63" stop-color="#D5DFEB"/>
<stop offset="0.71" stop-color="#BDCDE0"/>
<stop offset="0.78" stop-color="#9FB7D1"/>
<stop offset="0.85" stop-color="#7C9DC1"/>
<stop offset="0.91" stop-color="#537EAD"/>
<stop offset="0.97" stop-color="#265C98"/>
<stop offset="1" stop-color="#0A478B"/>
</linearGradient>
<linearGradient id="paint2_linear_448_1422" x1="-134.552" y1="120.604" x2="-134.552" y2="-202.939" gradientUnits="userSpaceOnUse">
<stop stop-color="white"/>
<stop offset="0.29" stop-color="#FCFDFD"/>
<stop offset="0.43" stop-color="#F5F7FA"/>
<stop offset="0.53" stop-color="#E8EDF4"/>
<stop offset="0.63" stop-color="#D5DFEB"/>
<stop offset="0.71" stop-color="#BDCDE0"/>
<stop offset="0.78" stop-color="#9FB7D1"/>
<stop offset="0.85" stop-color="#7C9DC1"/>
<stop offset="0.91" stop-color="#537EAD"/>
<stop offset="0.97" stop-color="#265C98"/>
<stop offset="1" stop-color="#0A478B"/>
</linearGradient>
<linearGradient id="paint3_linear_448_1422" x1="-151.8" y1="153.893" x2="-151.8" y2="-166.189" gradientUnits="userSpaceOnUse">
<stop stop-color="white"/>
<stop offset="0.29" stop-color="#FCFDFD"/>
<stop offset="0.43" stop-color="#F5F7FA"/>
<stop offset="0.53" stop-color="#E8EDF4"/>
<stop offset="0.63" stop-color="#D5DFEB"/>
<stop offset="0.71" stop-color="#BDCDE0"/>
<stop offset="0.78" stop-color="#9FB7D1"/>
<stop offset="0.85" stop-color="#7C9DC1"/>
<stop offset="0.91" stop-color="#537EAD"/>
<stop offset="0.97" stop-color="#265C98"/>
<stop offset="1" stop-color="#0A478B"/>
</linearGradient>
<linearGradient id="paint4_linear_448_1422" x1="-207.674" y1="180.55" x2="-207.674" y2="-136.742" gradientUnits="userSpaceOnUse">
<stop stop-color="white"/>
<stop offset="0.29" stop-color="#FCFDFD"/>
<stop offset="0.43" stop-color="#F5F7FA"/>
<stop offset="0.53" stop-color="#E8EDF4"/>
<stop offset="0.63" stop-color="#D5DFEB"/>
<stop offset="0.71" stop-color="#BDCDE0"/>
<stop offset="0.78" stop-color="#9FB7D1"/>
<stop offset="0.85" stop-color="#7C9DC1"/>
<stop offset="0.91" stop-color="#537EAD"/>
<stop offset="0.97" stop-color="#265C98"/>
<stop offset="1" stop-color="#0A478B"/>
</linearGradient>
<linearGradient id="paint5_linear_448_1422" x1="-207.674" y1="210.601" x2="-207.674" y2="-104.501" gradientUnits="userSpaceOnUse">
<stop stop-color="white"/>
<stop offset="0.29" stop-color="#FCFDFD"/>
<stop offset="0.43" stop-color="#F5F7FA"/>
<stop offset="0.53" stop-color="#E8EDF4"/>
<stop offset="0.63" stop-color="#D5DFEB"/>
<stop offset="0.71" stop-color="#BDCDE0"/>
<stop offset="0.78" stop-color="#9FB7D1"/>
<stop offset="0.85" stop-color="#7C9DC1"/>
<stop offset="0.91" stop-color="#537EAD"/>
<stop offset="0.97" stop-color="#265C98"/>
<stop offset="1" stop-color="#0A478B"/>
</linearGradient>
<linearGradient id="paint6_linear_448_1422" x1="-189.937" y1="234.74" x2="-189.937" y2="-78.7395" gradientUnits="userSpaceOnUse">
<stop stop-color="white"/>
<stop offset="0.29" stop-color="#FCFDFD"/>
<stop offset="0.43" stop-color="#F5F7FA"/>
<stop offset="0.53" stop-color="#E8EDF4"/>
<stop offset="0.63" stop-color="#D5DFEB"/>
<stop offset="0.71" stop-color="#BDCDE0"/>
<stop offset="0.78" stop-color="#9FB7D1"/>
<stop offset="0.85" stop-color="#7C9DC1"/>
<stop offset="0.91" stop-color="#537EAD"/>
<stop offset="0.97" stop-color="#265C98"/>
<stop offset="1" stop-color="#0A478B"/>
</linearGradient>
<linearGradient id="paint7_linear_448_1422" x1="-145.856" y1="259.06" x2="-145.856" y2="-53.3519" gradientUnits="userSpaceOnUse">
<stop stop-color="white"/>
<stop offset="0.29" stop-color="#FCFDFD"/>
<stop offset="0.43" stop-color="#F5F7FA"/>
<stop offset="0.53" stop-color="#E8EDF4"/>
<stop offset="0.63" stop-color="#D5DFEB"/>
<stop offset="0.71" stop-color="#BDCDE0"/>
<stop offset="0.78" stop-color="#9FB7D1"/>
<stop offset="0.85" stop-color="#7C9DC1"/>
<stop offset="0.91" stop-color="#537EAD"/>
<stop offset="0.97" stop-color="#265C98"/>
<stop offset="1" stop-color="#0A478B"/>
</linearGradient>
<linearGradient id="paint8_linear_448_1422" x1="-89.2811" y1="285.935" x2="-89.2811" y2="-26.0276" gradientUnits="userSpaceOnUse">
<stop stop-color="white"/>
<stop offset="0.29" stop-color="#FCFDFD"/>
<stop offset="0.43" stop-color="#F5F7FA"/>
<stop offset="0.53" stop-color="#E8EDF4"/>
<stop offset="0.63" stop-color="#D5DFEB"/>
<stop offset="0.71" stop-color="#BDCDE0"/>
<stop offset="0.78" stop-color="#9FB7D1"/>
<stop offset="0.85" stop-color="#7C9DC1"/>
<stop offset="0.91" stop-color="#537EAD"/>
<stop offset="0.97" stop-color="#265C98"/>
<stop offset="1" stop-color="#0A478B"/>
</linearGradient>
<linearGradient id="paint9_linear_448_1422" x1="-47.8003" y1="303.159" x2="-47.8003" y2="-9.09405" gradientUnits="userSpaceOnUse">
<stop stop-color="white"/>
<stop offset="0.29" stop-color="#FCFDFD"/>
<stop offset="0.43" stop-color="#F5F7FA"/>
<stop offset="0.53" stop-color="#E8EDF4"/>
<stop offset="0.63" stop-color="#D5DFEB"/>
<stop offset="0.71" stop-color="#BDCDE0"/>
<stop offset="0.78" stop-color="#9FB7D1"/>
<stop offset="0.85" stop-color="#7C9DC1"/>
<stop offset="0.91" stop-color="#537EAD"/>
<stop offset="0.97" stop-color="#265C98"/>
<stop offset="1" stop-color="#0A478B"/>
</linearGradient>
<linearGradient id="paint10_linear_448_1422" x1="24.6918" y1="319.467" x2="24.6918" y2="5.7635" gradientUnits="userSpaceOnUse">
<stop stop-color="white"/>
<stop offset="0.29" stop-color="#FCFDFD"/>
<stop offset="0.43" stop-color="#F5F7FA"/>
<stop offset="0.53" stop-color="#E8EDF4"/>
<stop offset="0.63" stop-color="#D5DFEB"/>
<stop offset="0.71" stop-color="#BDCDE0"/>
<stop offset="0.78" stop-color="#9FB7D1"/>
<stop offset="0.85" stop-color="#7C9DC1"/>
<stop offset="0.91" stop-color="#537EAD"/>
<stop offset="0.97" stop-color="#265C98"/>
<stop offset="1" stop-color="#0A478B"/>
</linearGradient>
<linearGradient id="paint11_linear_448_1422" x1="31.8853" y1="347.647" x2="31.8853" y2="33.9432" gradientUnits="userSpaceOnUse">
<stop stop-color="white"/>
<stop offset="0.29" stop-color="#FCFDFD"/>
<stop offset="0.43" stop-color="#F5F7FA"/>
<stop offset="0.53" stop-color="#E8EDF4"/>
<stop offset="0.63" stop-color="#D5DFEB"/>
<stop offset="0.71" stop-color="#BDCDE0"/>
<stop offset="0.78" stop-color="#9FB7D1"/>
<stop offset="0.85" stop-color="#7C9DC1"/>
<stop offset="0.91" stop-color="#537EAD"/>
<stop offset="0.97" stop-color="#265C98"/>
<stop offset="1" stop-color="#0A478B"/>
</linearGradient>
<linearGradient id="paint12_linear_448_1422" x1="75.0376" y1="377.495" x2="75.0376" y2="63.7908" gradientUnits="userSpaceOnUse">
<stop stop-color="white"/>
<stop offset="0.29" stop-color="#FCFDFD"/>
<stop offset="0.43" stop-color="#F5F7FA"/>
<stop offset="0.53" stop-color="#E8EDF4"/>
<stop offset="0.63" stop-color="#D5DFEB"/>
<stop offset="0.71" stop-color="#BDCDE0"/>
<stop offset="0.78" stop-color="#9FB7D1"/>
<stop offset="0.85" stop-color="#7C9DC1"/>
<stop offset="0.91" stop-color="#537EAD"/>
<stop offset="0.97" stop-color="#265C98"/>
<stop offset="1" stop-color="#0A478B"/>
</linearGradient>
<linearGradient id="paint13_linear_448_1422" x1="36.3775" y1="398.96" x2="36.3775" y2="85.2623" gradientUnits="userSpaceOnUse">
<stop stop-color="white"/>
<stop offset="0.29" stop-color="#FCFDFD"/>
<stop offset="0.43" stop-color="#F5F7FA"/>
<stop offset="0.53" stop-color="#E8EDF4"/>
<stop offset="0.63" stop-color="#D5DFEB"/>
<stop offset="0.71" stop-color="#BDCDE0"/>
<stop offset="0.78" stop-color="#9FB7D1"/>
<stop offset="0.85" stop-color="#7C9DC1"/>
<stop offset="0.91" stop-color="#537EAD"/>
<stop offset="0.97" stop-color="#265C98"/>
<stop offset="1" stop-color="#0A478B"/>
</linearGradient>
<linearGradient id="paint14_linear_448_1422" x1="50.0846" y1="363.297" x2="50.0846" y2="106.182" gradientUnits="userSpaceOnUse">
<stop stop-color="white"/>
<stop offset="0.29" stop-color="#FCFDFD"/>
<stop offset="0.43" stop-color="#F5F7FA"/>
<stop offset="0.53" stop-color="#E8EDF4"/>
<stop offset="0.63" stop-color="#D5DFEB"/>
<stop offset="0.71" stop-color="#BDCDE0"/>
<stop offset="0.78" stop-color="#9FB7D1"/>
<stop offset="0.85" stop-color="#7C9DC1"/>
<stop offset="0.91" stop-color="#537EAD"/>
<stop offset="0.97" stop-color="#265C98"/>
<stop offset="1" stop-color="#0A478B"/>
</linearGradient>
<linearGradient id="paint15_linear_448_1422" x1="15.9135" y1="390.454" x2="15.9135" y2="135.16" gradientUnits="userSpaceOnUse">
<stop stop-color="white"/>
<stop offset="0.29" stop-color="#FCFDFD"/>
<stop offset="0.43" stop-color="#F5F7FA"/>
<stop offset="0.53" stop-color="#E8EDF4"/>
<stop offset="0.63" stop-color="#D5DFEB"/>
<stop offset="0.71" stop-color="#BDCDE0"/>
<stop offset="0.78" stop-color="#9FB7D1"/>
<stop offset="0.85" stop-color="#7C9DC1"/>
<stop offset="0.91" stop-color="#537EAD"/>
<stop offset="0.97" stop-color="#265C98"/>
<stop offset="1" stop-color="#0A478B"/>
</linearGradient>
<linearGradient id="paint16_linear_448_1422" x1="-16.4611" y1="410.809" x2="-16.4611" y2="157.289" gradientUnits="userSpaceOnUse">
<stop stop-color="white"/>
<stop offset="0.29" stop-color="#FCFDFD"/>
<stop offset="0.43" stop-color="#F5F7FA"/>
<stop offset="0.53" stop-color="#E8EDF4"/>
<stop offset="0.63" stop-color="#D5DFEB"/>
<stop offset="0.71" stop-color="#BDCDE0"/>
<stop offset="0.78" stop-color="#9FB7D1"/>
<stop offset="0.85" stop-color="#7C9DC1"/>
<stop offset="0.91" stop-color="#537EAD"/>
<stop offset="0.97" stop-color="#265C98"/>
<stop offset="1" stop-color="#0A478B"/>
</linearGradient>
<linearGradient id="paint17_linear_448_1422" x1="-9.93755" y1="429.051" x2="-9.93755" y2="177.264" gradientUnits="userSpaceOnUse">
<stop stop-color="white"/>
<stop offset="0.29" stop-color="#FCFDFD"/>
<stop offset="0.43" stop-color="#F5F7FA"/>
<stop offset="0.53" stop-color="#E8EDF4"/>
<stop offset="0.63" stop-color="#D5DFEB"/>
<stop offset="0.71" stop-color="#BDCDE0"/>
<stop offset="0.78" stop-color="#9FB7D1"/>
<stop offset="0.85" stop-color="#7C9DC1"/>
<stop offset="0.91" stop-color="#537EAD"/>
<stop offset="0.97" stop-color="#265C98"/>
<stop offset="1" stop-color="#0A478B"/>
</linearGradient>
<linearGradient id="paint18_linear_448_1422" x1="-16.4604" y1="453.22" x2="-16.4604" y2="203.135" gradientUnits="userSpaceOnUse">
<stop stop-color="white"/>
<stop offset="0.29" stop-color="#FCFDFD"/>
<stop offset="0.43" stop-color="#F5F7FA"/>
<stop offset="0.53" stop-color="#E8EDF4"/>
<stop offset="0.63" stop-color="#D5DFEB"/>
<stop offset="0.71" stop-color="#BDCDE0"/>
<stop offset="0.78" stop-color="#9FB7D1"/>
<stop offset="0.85" stop-color="#7C9DC1"/>
<stop offset="0.91" stop-color="#537EAD"/>
<stop offset="0.97" stop-color="#265C98"/>
<stop offset="1" stop-color="#0A478B"/>
</linearGradient>
<linearGradient id="paint19_linear_448_1422" x1="-2.24889" y1="471.853" x2="-2.24889" y2="223.443" gradientUnits="userSpaceOnUse">
<stop stop-color="white"/>
<stop offset="0.29" stop-color="#FCFDFD"/>
<stop offset="0.43" stop-color="#F5F7FA"/>
<stop offset="0.53" stop-color="#E8EDF4"/>
<stop offset="0.63" stop-color="#D5DFEB"/>
<stop offset="0.71" stop-color="#BDCDE0"/>
<stop offset="0.78" stop-color="#9FB7D1"/>
<stop offset="0.85" stop-color="#7C9DC1"/>
<stop offset="0.91" stop-color="#537EAD"/>
<stop offset="0.97" stop-color="#265C98"/>
<stop offset="1" stop-color="#0A478B"/>
</linearGradient>
<linearGradient id="paint20_linear_448_1422" x1="48.1934" y1="481.512" x2="48.1934" y2="234.737" gradientUnits="userSpaceOnUse">
<stop stop-color="white"/>
<stop offset="0.29" stop-color="#FCFDFD"/>
<stop offset="0.43" stop-color="#F5F7FA"/>
<stop offset="0.53" stop-color="#E8EDF4"/>
<stop offset="0.63" stop-color="#D5DFEB"/>
<stop offset="0.71" stop-color="#BDCDE0"/>
<stop offset="0.78" stop-color="#9FB7D1"/>
<stop offset="0.85" stop-color="#7C9DC1"/>
<stop offset="0.91" stop-color="#537EAD"/>
<stop offset="0.97" stop-color="#265C98"/>
<stop offset="1" stop-color="#0A478B"/>
</linearGradient>
<linearGradient id="paint21_linear_448_1422" x1="123.254" y1="500.084" x2="123.254" y2="254.906" gradientUnits="userSpaceOnUse">
<stop stop-color="white"/>
<stop offset="0.29" stop-color="#FCFDFD"/>
<stop offset="0.43" stop-color="#F5F7FA"/>
<stop offset="0.53" stop-color="#E8EDF4"/>
<stop offset="0.63" stop-color="#D5DFEB"/>
<stop offset="0.71" stop-color="#BDCDE0"/>
<stop offset="0.78" stop-color="#9FB7D1"/>
<stop offset="0.85" stop-color="#7C9DC1"/>
<stop offset="0.91" stop-color="#537EAD"/>
<stop offset="0.97" stop-color="#265C98"/>
<stop offset="1" stop-color="#0A478B"/>
</linearGradient>
<linearGradient id="paint22_linear_448_1422" x1="190.819" y1="523.509" x2="190.819" y2="279.914" gradientUnits="userSpaceOnUse">
<stop stop-color="white"/>
<stop offset="0.29" stop-color="#FCFDFD"/>
<stop offset="0.43" stop-color="#F5F7FA"/>
<stop offset="0.53" stop-color="#E8EDF4"/>
<stop offset="0.63" stop-color="#D5DFEB"/>
<stop offset="0.71" stop-color="#BDCDE0"/>
<stop offset="0.78" stop-color="#9FB7D1"/>
<stop offset="0.85" stop-color="#7C9DC1"/>
<stop offset="0.91" stop-color="#537EAD"/>
<stop offset="0.97" stop-color="#265C98"/>
<stop offset="1" stop-color="#0A478B"/>
</linearGradient>
<linearGradient id="paint23_linear_448_1422" x1="295.804" y1="538.667" x2="295.804" y2="296.635" gradientUnits="userSpaceOnUse">
<stop stop-color="white"/>
<stop offset="0.29" stop-color="#FCFDFD"/>
<stop offset="0.43" stop-color="#F5F7FA"/>
<stop offset="0.53" stop-color="#E8EDF4"/>
<stop offset="0.63" stop-color="#D5DFEB"/>
<stop offset="0.71" stop-color="#BDCDE0"/>
<stop offset="0.78" stop-color="#9FB7D1"/>
<stop offset="0.85" stop-color="#7C9DC1"/>
<stop offset="0.91" stop-color="#537EAD"/>
<stop offset="0.97" stop-color="#265C98"/>
<stop offset="1" stop-color="#0A478B"/>
</linearGradient>
<linearGradient id="paint24_linear_448_1422" x1="374.802" y1="549.294" x2="374.802" y2="308.805" gradientUnits="userSpaceOnUse">
<stop stop-color="white"/>
<stop offset="0.29" stop-color="#FCFDFD"/>
<stop offset="0.43" stop-color="#F5F7FA"/>
<stop offset="0.53" stop-color="#E8EDF4"/>
<stop offset="0.63" stop-color="#D5DFEB"/>
<stop offset="0.71" stop-color="#BDCDE0"/>
<stop offset="0.78" stop-color="#9FB7D1"/>
<stop offset="0.85" stop-color="#7C9DC1"/>
<stop offset="0.91" stop-color="#537EAD"/>
<stop offset="0.97" stop-color="#265C98"/>
<stop offset="1" stop-color="#0A478B"/>
</linearGradient>
<linearGradient id="paint25_linear_448_1422" x1="460.955" y1="565.965" x2="460.955" y2="327.006" gradientUnits="userSpaceOnUse">
<stop stop-color="white"/>
<stop offset="0.29" stop-color="#FCFDFD"/>
<stop offset="0.43" stop-color="#F5F7FA"/>
<stop offset="0.53" stop-color="#E8EDF4"/>
<stop offset="0.63" stop-color="#D5DFEB"/>
<stop offset="0.71" stop-color="#BDCDE0"/>
<stop offset="0.78" stop-color="#9FB7D1"/>
<stop offset="0.85" stop-color="#7C9DC1"/>
<stop offset="0.91" stop-color="#537EAD"/>
<stop offset="0.97" stop-color="#265C98"/>
<stop offset="1" stop-color="#0A478B"/>
</linearGradient>
<linearGradient id="paint26_linear_448_1422" x1="550.343" y1="571.947" x2="550.343" y2="334.498" gradientUnits="userSpaceOnUse">
<stop stop-color="white"/>
<stop offset="0.29" stop-color="#FCFDFD"/>
<stop offset="0.43" stop-color="#F5F7FA"/>
<stop offset="0.53" stop-color="#E8EDF4"/>
<stop offset="0.63" stop-color="#D5DFEB"/>
<stop offset="0.71" stop-color="#BDCDE0"/>
<stop offset="0.78" stop-color="#9FB7D1"/>
<stop offset="0.85" stop-color="#7C9DC1"/>
<stop offset="0.91" stop-color="#537EAD"/>
<stop offset="0.97" stop-color="#265C98"/>
<stop offset="1" stop-color="#0A478B"/>
</linearGradient>
<linearGradient id="paint27_linear_448_1422" x1="524.088" y1="498.559" x2="316.318" y2="-128.476" gradientUnits="userSpaceOnUse">
<stop stop-color="white" stop-opacity="0"/>
<stop offset="0.09" stop-color="white" stop-opacity="0.13"/>
<stop offset="0.28" stop-color="white" stop-opacity="0.39"/>
<stop offset="0.46" stop-color="white" stop-opacity="0.61"/>
<stop offset="0.63" stop-color="white" stop-opacity="0.78"/>
<stop offset="0.78" stop-color="white" stop-opacity="0.9"/>
<stop offset="0.91" stop-color="white" stop-opacity="0.97"/>
<stop offset="1" stop-color="white"/>
</linearGradient>
<clipPath id="clip0_448_1422">
<rect width="850" height="410" rx="15" fill="white"/>
</clipPath>
</defs>
</svg>
