<svg width="29" height="27" viewBox="0 0 29 27" fill="none" xmlns="http://www.w3.org/2000/svg">
<g clip-path="url(#clip0_458_875)">
<path d="M0.75 7.2347H12.169C12.5131 8.80122 13.9121 9.97727 15.5805 9.97727C17.2488 9.97727 18.6478 8.80127 18.9919 7.2347H23.25C23.6642 7.2347 24 6.89889 24 6.4847C24 6.07052 23.6642 5.7347 23.25 5.7347H18.9915C18.6467 4.16898 17.2459 2.99219 15.5805 2.99219C13.9141 2.99219 12.5139 4.1688 12.1693 5.7347H0.75C0.335812 5.7347 0 6.07052 0 6.4847C0 6.89889 0.335812 7.2347 0.75 7.2347ZM13.588 6.48667L13.588 6.47861C13.5913 5.38328 14.4851 4.49223 15.5805 4.49223C16.6743 4.49223 17.5681 5.38206 17.5728 6.47688L17.573 6.48789C17.5712 7.58509 16.6781 8.47731 15.5805 8.47731C14.4833 8.47731 13.5904 7.58598 13.5879 6.48944L13.588 6.48667ZM23.25 22.7729H18.9915C18.6467 21.2072 17.2459 20.0304 15.5805 20.0304C13.9141 20.0304 12.5139 21.207 12.1693 22.7729H0.75C0.335812 22.7729 0 23.1086 0 23.5229C0 23.9371 0.335812 24.2729 0.75 24.2729H12.169C12.5131 25.8394 13.9121 27.0154 15.5805 27.0154C17.2488 27.0154 18.6478 25.8394 18.9919 24.2729H23.25C23.6642 24.2729 24 23.9371 24 23.5229C24 23.1086 23.6642 22.7729 23.25 22.7729ZM15.5805 25.5154C14.4833 25.5154 13.5904 24.6241 13.5879 23.5276L13.588 23.5248L13.588 23.5168C13.5913 22.4215 14.4851 21.5304 15.5805 21.5304C16.6743 21.5304 17.5681 22.4202 17.5728 23.515L17.573 23.526C17.5714 24.6233 16.6782 25.5154 15.5805 25.5154ZM23.25 14.2538H11.831C11.4869 12.6873 10.0879 11.5113 8.41955 11.5113C6.75117 11.5113 5.35223 12.6873 5.00808 14.2538H0.75C0.335812 14.2538 0 14.5896 0 15.0038C0 15.418 0.335812 15.7538 0.75 15.7538H5.00845C5.35331 17.3195 6.75413 18.4963 8.41955 18.4963C10.0859 18.4963 11.4861 17.3197 11.8307 15.7538H23.25C23.6642 15.7538 24 15.418 24 15.0038C24 14.5896 23.6642 14.2538 23.25 14.2538ZM10.412 15.0018L10.412 15.0099C10.4087 16.1052 9.51492 16.9963 8.41955 16.9963C7.32572 16.9963 6.43191 16.1065 6.42717 15.0117L6.42703 15.0007C6.42867 13.9034 7.32188 13.0113 8.41955 13.0113C9.5167 13.0113 10.4096 13.9026 10.4121 14.9992L10.412 15.0018Z" fill="black"/>
</g>
<circle cx="4" cy="4" r="4" transform="matrix(1 0 0 -1 21 8)" fill="#124295"/>
<defs>
<clipPath id="clip0_458_875">
<rect width="24" height="24" fill="white" transform="translate(0 3)"/>
</clipPath>
</defs>
</svg>
