<svg width="22" height="22" viewBox="0 0 22 22" fill="none" xmlns="http://www.w3.org/2000/svg">
<path d="M11.7286 14.9233L17.4395 9.36844C17.5717 9.23996 17.6445 9.06846 17.6445 8.88558C17.6445 8.70271 17.5717 8.53121 17.4395 8.40273L17.019 7.99365C16.7451 7.72746 16.2998 7.72746 16.0262 7.99365L11.2305 12.6582L6.42954 7.98848C6.29735 7.86 6.12113 7.78906 5.93322 7.78906C5.7451 7.78906 5.56888 7.86 5.43658 7.98848L5.01622 8.39755C4.88402 8.52613 4.8112 8.69754 4.8112 8.88041C4.8112 9.06328 4.88402 9.23478 5.01622 9.36326L10.7323 14.9233C10.8649 15.0521 11.042 15.1228 11.2302 15.1224C11.4192 15.1228 11.5961 15.0521 11.7286 14.9233Z" fill="black"/>
</svg>
