<svg width="24" height="24" viewBox="0 0 24 24" fill="none" xmlns="http://www.w3.org/2000/svg">
<path d="M24 11.9999C24 5.37255 18.6275 8.14232e-07 12.0001 5.2454e-07C5.37271 2.34848e-07 -5.91278e-05 5.37255 -5.91278e-05 11.9999C-5.91278e-05 18.6273 5.37271 24.0001 12.0001 24.0001C18.6244 23.9926 23.9926 18.6245 24 11.9999ZM1.20009 11.9999C1.20009 6.03523 6.03534 1.19992 12.0001 1.19992C17.9648 1.19993 22.8001 6.03523 22.8001 11.9999C22.8001 17.9647 17.9648 22.7999 12.0001 22.7999C6.03826 22.7931 1.2069 17.9617 1.20009 11.9999Z" fill="black"/>
<path d="M16.6524 10.5968C16.8707 10.3472 16.8451 9.96822 16.5957 9.75003C16.3461 9.53206 15.9671 9.55754 15.7489 9.80696L12.0008 14.0907L8.25249 9.80673C8.03429 9.55709 7.65528 9.53184 7.40592 9.74981C7.15629 9.968 7.1308 10.347 7.349 10.5966L11.5491 15.3966C11.6054 15.461 11.6749 15.5126 11.7528 15.548C11.8307 15.5833 11.9153 15.6016 12.0008 15.6016C12.0864 15.6016 12.171 15.5833 12.2489 15.548C12.3268 15.5126 12.3963 15.461 12.4526 15.3966L16.6524 10.5968Z" fill="black"/>
</svg>
