<?xml version="1.0" encoding="UTF-8"?><svg id="_Слой_1" xmlns="http://www.w3.org/2000/svg" width="230mm" height="23mm" viewBox="0 0 651.97 65.2"><defs><style>.cls-1{fill:#090400;}.cls-2{fill:#9535f7;}</style></defs><path class="cls-1" d="M98.32,44.9l-9.27,18.89h-9.71L110.09,1.41h14.79l30.75,62.38h-9.8l-9.27-18.89h-38.23Zm3.92-7.84h30.39l-15.15-30.84-15.24,30.84Z"/><path class="cls-1" d="M169.5,7.2V63.79h-8.73V1.41h15.24l40.46,56.59V1.41h8.64V63.79h-15.33L169.5,7.2Z"/><path class="cls-1" d="M269.58,9.25V63.79h-8.73V9.25h-27.72V1.41h64.26v7.84h-27.81Z"/><rect class="cls-1" x="296.47" y="53.64" width="11.04" height="10.15"/><g><path class="cls-2" d="M370.84,48.54c0,1.95-.33,3.85-.98,5.69-.65,1.84-1.89,3.46-3.7,4.87-1.81,1.41-4.37,2.54-7.66,3.4-3.3,.86-7.59,1.29-12.88,1.29-4.75,0-8.73-.45-11.94-1.34-3.21-.89-5.81-2.1-7.8-3.62-1.99-1.52-3.43-3.27-4.32-5.26-.89-1.98-1.4-4.06-1.52-6.25h8.29c.18,2.18,.86,3.89,2.05,5.13,1.19,1.24,2.69,2.15,4.5,2.76,1.81,.6,3.82,.98,6.02,1.12,2.2,.14,4.42,.22,6.68,.22,4.99,0,8.7-.67,11.14-2.02,2.43-1.35,3.65-3.12,3.65-5.3,0-1.44-.54-2.6-1.6-3.49-1.07-.89-2.48-1.59-4.23-2.11-1.75-.52-3.77-.93-6.06-1.25-2.29-.32-4.65-.59-7.09-.82-3.09-.34-6-.75-8.73-1.21-2.73-.46-5.11-1.12-7.13-1.98-2.02-.86-3.62-2.01-4.81-3.45-1.19-1.44-1.78-3.3-1.78-5.6,0-1.95,.34-3.85,1.02-5.69,.68-1.84,1.96-3.46,3.83-4.87,1.87-1.41,4.46-2.54,7.75-3.4,3.3-.86,7.59-1.29,12.88-1.29,4.75,0,8.63,.49,11.63,1.47,3,.98,5.36,2.24,7.09,3.79,1.72,1.55,2.92,3.3,3.61,5.26,.68,1.95,1.08,3.94,1.2,5.95h-8.29c-.24-2.07-.79-3.72-1.65-4.95-.86-1.23-2.01-2.17-3.43-2.8-1.43-.63-3.12-1.05-5.08-1.25-1.96-.2-4.16-.3-6.59-.3-5.53,0-9.49,.69-11.9,2.07-2.41,1.38-3.61,3.16-3.61,5.34,0,1.21,.58,2.17,1.74,2.89,1.16,.72,2.66,1.29,4.5,1.72,1.84,.43,3.86,.76,6.06,.99,2.2,.23,4.31,.46,6.33,.69,3.15,.34,6.1,.78,8.87,1.29,2.76,.52,5.17,1.26,7.22,2.24,2.05,.98,3.68,2.27,4.9,3.88,1.22,1.61,1.83,3.68,1.83,6.2Z"/><path class="cls-2" d="M405.06,63.61c-4.46,.06-7.93-.3-10.43-1.07-2.5-.77-4.35-2.15-5.57-4.14-1.22-1.99-1.96-4.75-2.23-8.29-.27-3.53-.4-8.03-.4-13.5v-15.24h-8.47v-7.31h8.56V1.42h8.29l-1.51,12.65h15.5v7.31h-13.99l-.09,15.24c0,4.69,.07,8.35,.22,10.96,.15,2.61,.56,4.54,1.25,5.79,.68,1.25,1.72,1.99,3.12,2.23,1.39,.24,3.34,.36,5.84,.36l-.09,7.66Z"/><path class="cls-2" d="M460.31,56.16c-2.5,2.71-5.58,4.66-9.27,5.85-3.68,1.19-7.84,1.78-12.47,1.78-3.39,0-6.48-.41-9.27-1.23-2.79-.82-5.18-2.08-7.17-3.77-1.99-1.7-3.52-3.82-4.59-6.36-1.07-2.54-1.61-5.51-1.61-8.9V14.07h8.29v26.83c0,1.41,.07,3.04,.22,4.87,.15,1.84,.68,3.55,1.61,5.13,.92,1.58,2.37,2.92,4.37,4.03,1.99,1.1,4.83,1.65,8.51,1.65,2.97,0,5.7-.3,8.2-.89,2.5-.59,4.65-1.62,6.46-3.09,1.81-1.47,3.24-3.49,4.28-6.06,1.04-2.57,1.59-5.86,1.65-9.88V14.07h8.2V63.66h-8.2l.8-7.5Z"/><path class="cls-2" d="M527.5,55.62c-2.5,2.58-5.61,4.6-9.36,6.07-3.74,1.46-7.96,2.16-12.65,2.11-4.28,0-8.12-.49-11.54-1.46-3.42-.97-6.34-2.46-8.78-4.47-2.44-2.01-4.31-4.54-5.61-7.61-1.31-3.07-1.99-6.7-2.05-10.88,0-4.3,.64-8.03,1.92-11.18,1.28-3.15,3.15-5.76,5.61-7.83,2.46-2.06,5.46-3.6,9-4.6,3.53-1,7.56-1.5,12.07-1.5,9.09,0,16.04,2.24,20.85,6.71V1.42h8.29V63.79h-8.29l.54-8.18Zm-41.52-16.52c.12,6.25,1.87,10.68,5.26,13.29,3.39,2.61,8.29,3.91,14.7,3.91,3.21,0,6.1-.32,8.69-.95s4.77-1.64,6.55-3.01c1.78-1.38,3.17-3.15,4.14-5.33,.98-2.18,1.5-4.82,1.56-7.92-.12-6.31-1.89-10.8-5.3-13.46-3.42-2.67-8.57-4.03-15.46-4.09-6.89,0-11.94,1.35-15.15,4.04-3.21,2.7-4.87,7.2-4.99,13.51Z"/><path class="cls-2" d="M589.34,56.48v7.31h-46.96v-7.31h23.88V21.55h-17.02v-7.4h25.4V56.48h14.7Zm-14.7-55.08v7.71h-8.38V1.41h8.38Z"/><path class="cls-2" d="M650.73,39.01c-.06,4.16-.79,7.79-2.18,10.9-1.39,3.11-3.36,5.68-5.88,7.73-2.53,2.05-5.53,3.59-9,4.61-3.48,1.03-7.32,1.54-11.54,1.54s-8.14-.5-11.58-1.5c-3.45-1-6.4-2.52-8.87-4.57-2.47-2.05-4.38-4.64-5.75-7.78-1.37-3.13-2.08-6.81-2.14-11.02,0-4.22,.68-7.91,2.05-11.07,1.37-3.16,3.28-5.78,5.75-7.86,2.46-2.08,5.44-3.65,8.91-4.7,3.48-1.05,7.32-1.58,11.54-1.58s8.17,.51,11.67,1.54c3.5,1.03,6.52,2.58,9.05,4.66,2.52,2.08,4.48,4.72,5.88,7.91,1.4,3.19,2.09,6.92,2.09,11.2Zm-48.48-.26c.12,6.15,1.89,10.67,5.3,13.55,3.42,2.88,8.27,4.32,14.57,4.32s11.2-1.42,14.7-4.27c3.5-2.85,5.32-7.38,5.44-13.59-.12-6.21-1.96-10.75-5.53-13.63-3.56-2.88-8.5-4.32-14.79-4.32s-11.12,1.44-14.48,4.32c-3.36,2.88-5.09,7.42-5.21,13.63Z"/></g><g><polygon class="cls-1" points="47.23 22.8 47.23 22.8 73.16 1.41 60.24 1.41 9.97 43.11 9.97 1.41 1.24 1.41 1.24 63.79 9.97 63.79 9.97 53.54 39.44 29.24 47.23 22.8"/><polygon class="cls-1" points="50.6 28.01 43.82 33.61 63.36 63.79 73.78 63.79 50.6 28.01"/></g></svg>