<svg width="138" height="14" viewBox="0 0 138 14" fill="none" xmlns="http://www.w3.org/2000/svg">
<path d="M78.5711 10.6612C78.5711 11.0585 78.4875 11.4559 78.4039 11.8532C78.2367 12.2505 77.986 12.5684 77.6516 12.8863C77.2337 13.2041 76.7322 13.4425 76.0635 13.6015C75.3948 13.7604 74.4754 13.8399 73.3052 13.8399C72.3021 13.8399 71.4663 13.7604 70.7976 13.522C70.1289 13.3631 69.5438 13.0452 69.1259 12.7273C68.7079 12.4095 68.3736 12.0121 68.2064 11.6148C68.0392 11.2175 67.8721 10.7407 67.8721 10.3433H69.6274C69.6274 10.8201 69.7945 11.138 70.0453 11.3764C70.2961 11.6148 70.6304 11.8532 70.9647 11.9327C71.3827 12.0916 71.8006 12.1711 72.2185 12.1711C72.72 12.1711 73.138 12.2505 73.6395 12.2505C74.7261 12.2505 75.4784 12.0916 75.9799 11.8532C76.4814 11.5353 76.7322 11.2175 76.7322 10.7407C76.7322 10.4228 76.6486 10.1844 76.3978 10.0255C76.1471 9.86652 75.8963 9.70759 75.4784 9.54866C75.144 9.46919 74.6425 9.38972 74.2246 9.31025C73.7231 9.23079 73.2216 9.15132 72.7201 9.15132C72.0514 9.07185 71.4663 8.99238 70.8812 8.91292C70.2961 8.83345 69.7945 8.67452 69.3766 8.51558C68.9587 8.35665 68.6243 8.11825 68.3736 7.80038C68.1228 7.48251 67.9556 7.08518 67.9556 6.60837C67.9556 6.21104 68.0392 5.8137 68.2064 5.41637C68.3736 5.01903 68.6243 4.70116 69.0423 4.38329C69.4602 4.06542 69.9617 3.82701 70.714 3.66808C71.3827 3.50914 72.3021 3.42969 73.4723 3.42969C74.4754 3.42969 75.3112 3.50915 75.9799 3.74755C76.6486 3.98595 77.1501 4.22435 77.4844 4.54222C77.8188 4.86009 78.0695 5.25742 78.2367 5.65476C78.4039 6.05209 78.4875 6.44943 78.4875 6.92624H76.7322C76.6486 6.5289 76.565 6.13156 76.3978 5.89316C76.2307 5.65476 75.9799 5.41636 75.6456 5.33689C75.3112 5.17796 74.9769 5.09849 74.5589 5.09849C74.141 5.01902 73.6395 5.01903 73.138 5.01903C71.9678 5.01903 71.1319 5.17797 70.6304 5.41637C70.1289 5.65477 69.8781 6.0521 69.8781 6.5289C69.8781 6.7673 69.9617 7.00571 70.2125 7.16464C70.4632 7.32358 70.7976 7.40304 71.1319 7.56198C71.5498 7.64144 71.9678 7.72091 72.3857 7.80038C72.8872 7.87985 73.3052 7.87985 73.7231 7.95931C74.3918 8.03878 74.9769 8.11825 75.6456 8.19772C76.2307 8.27718 76.7322 8.43611 77.1501 8.67451C77.568 8.91291 77.9024 9.15132 78.1531 9.46918C78.4039 9.70759 78.5711 10.1049 78.5711 10.6612Z" fill="black" fill-opacity="0.4"/>
<path d="M85.843 13.4401C84.9236 13.4401 84.1713 13.3606 83.6698 13.2017C83.1683 13.0428 82.7503 12.8044 82.4996 12.3276C82.2488 11.9302 82.0817 11.3739 81.9981 10.6587C81.9145 9.94354 81.9145 9.0694 81.9145 7.95686V5.41391H80.1592V3.90403H81.9981V1.83789H83.7534L83.419 3.90403H86.6789V5.41391H83.6698V7.95686C83.6698 8.91047 83.6698 9.62567 83.7534 10.1819C83.7534 10.7382 83.837 11.1356 84.0041 11.374C84.1713 11.6124 84.3385 11.7713 84.6728 11.8507C85.0072 11.9302 85.3415 11.9302 85.9266 11.9302L85.843 13.4401Z" fill="black" fill-opacity="0.4"/>
<path d="M97.5454 12.3265C97.0439 12.8827 96.3752 13.2801 95.5393 13.5979C94.7871 13.8363 93.8676 13.9953 92.8646 13.9953C92.1123 13.9953 91.5272 13.9158 90.8585 13.7569C90.2734 13.598 89.7719 13.2801 89.354 12.9622C88.9361 12.5649 88.6017 12.1675 88.351 11.6113C88.1002 11.055 88.0166 10.4193 88.0166 9.70406V3.98242H89.7719V9.14779C89.7719 9.46566 89.7719 9.78353 89.8555 10.1809C89.8555 10.5782 90.0227 10.8961 90.1898 11.2934C90.357 11.6113 90.6914 11.9291 91.1093 12.1675C91.5272 12.4059 92.1123 12.4854 92.9482 12.4854C93.6169 12.4854 94.1184 12.4059 94.7035 12.3265C95.205 12.1675 95.7065 12.0086 96.0409 11.6907C96.4588 11.3729 96.7095 10.9755 96.9603 10.4193C97.2111 9.86299 97.2946 9.14779 97.2946 8.35312V4.06188H99.0499V13.5979H97.2946L97.5454 12.3265Z" fill="black" fill-opacity="0.4"/>
<path d="M111.838 12.2472C111.337 12.8035 110.668 13.2008 109.832 13.5187C108.997 13.8366 108.161 13.9955 107.158 13.9955C106.238 13.9955 105.402 13.916 104.734 13.6776C103.981 13.4392 103.396 13.2008 102.895 12.724C102.393 12.3267 101.975 11.7704 101.725 11.1347C101.474 10.499 101.307 9.70427 101.307 8.83014C101.307 7.956 101.474 7.16133 101.725 6.52559C101.975 5.88986 102.393 5.33358 102.895 4.85678C103.396 4.45944 104.065 4.14158 104.817 3.90317C105.57 3.66477 106.405 3.58531 107.408 3.58531C109.331 3.58531 110.835 4.06212 111.838 5.01572V0.962891H113.594V13.5187H111.838V12.2472ZM102.978 8.75068C102.978 10.0222 103.396 10.9758 104.065 11.532C104.817 12.0883 105.82 12.3267 107.158 12.3267C107.826 12.3267 108.411 12.2472 108.997 12.1678C109.582 12.0883 110 11.8499 110.417 11.532C110.835 11.2142 111.086 10.8963 111.337 10.4195C111.504 9.94268 111.671 9.38641 111.671 8.75068C111.671 7.39973 111.253 6.5256 110.585 5.96933C109.832 5.41305 108.746 5.09518 107.325 5.09518C105.904 5.09518 104.817 5.41305 104.149 5.96933C103.396 6.5256 103.062 7.4792 102.978 8.75068Z" fill="black" fill-opacity="0.4"/>
<path d="M124.962 12.0113V13.5211H115.016V12.0113H120.114V5.41549H116.52V3.90561H121.87V12.0113H124.962ZM121.786 0.0117188V2.07786H119.446V0.0117188H121.786Z" fill="black" fill-opacity="0.4"/>
<path d="M138.003 8.75399C138.003 9.62812 137.836 10.4228 137.501 11.0585C137.167 11.6943 136.749 12.2505 136.247 12.6479C135.746 13.0452 135.077 13.3631 134.325 13.6015C133.573 13.8399 132.737 13.9194 131.901 13.9194C130.982 13.9194 130.146 13.8399 129.477 13.6015C128.725 13.3631 128.14 13.0452 127.555 12.6479C127.053 12.2505 126.635 11.6943 126.301 10.9791C126.05 10.3433 125.883 9.54865 125.883 8.67451C125.883 7.80037 126.05 7.00571 126.301 6.36997C126.551 5.73423 126.969 5.17796 127.555 4.70116C128.056 4.22435 128.725 3.90649 129.477 3.74755C130.229 3.50915 131.065 3.42969 131.901 3.42969C132.82 3.42969 133.656 3.50915 134.409 3.74755C135.161 3.98595 135.83 4.30382 136.331 4.70116C136.833 5.17796 137.25 5.65477 137.585 6.36997C137.836 7.00571 138.003 7.80038 138.003 8.75399ZM127.638 8.67451C127.638 9.94599 128.056 10.8996 128.725 11.5353C129.477 12.1711 130.48 12.4095 131.817 12.4095C133.155 12.4095 134.158 12.0916 134.91 11.5353C135.662 10.8996 135.997 9.94599 136.08 8.67451C136.08 7.40304 135.662 6.44944 134.91 5.8137C134.158 5.17797 133.071 4.93956 131.734 4.93956C130.396 4.93956 129.393 5.25743 128.641 5.8137C128.056 6.36997 127.722 7.32357 127.638 8.67451Z" fill="black" fill-opacity="0.4"/>
<path d="M1.83401 11.4559V13.522H-0.00488281V0.966191H1.83401V9.31024L12.533 0.886719H15.2913L9.77467 5.17795L15.3749 13.4425H13.2017L8.35371 6.29049L1.83401 11.4559Z" fill="black" fill-opacity="0.4"/>
<path d="M20.1396 9.70428L18.1336 13.5187H16.0439L22.5636 0.962891H25.7399L32.2596 13.5187H30.17L28.1639 9.70428H20.1396ZM20.9755 8.11494H27.4116L24.2354 1.91649L20.9755 8.11494Z" fill="black" fill-opacity="0.4"/>
<path d="M35.6871 2.07543V13.5187H33.7646V0.962891H37.0245L45.6338 12.4062V0.962891H47.4727V13.5187H44.2129L35.6871 2.07543Z" fill="black" fill-opacity="0.4"/>
<path d="M56.9174 2.47606V13.4425H55.0786V2.47606H49.2275V0.886719H62.852V2.47606H56.9174Z" fill="black" fill-opacity="0.4"/>
<path d="M65.1109 11.4531H62.7705V13.5193H65.1109V11.4531Z" fill="black" fill-opacity="0.4"/>
</svg>
