<svg width="64" height="64" viewBox="0 0 64 64" fill="none" xmlns="http://www.w3.org/2000/svg">
<rect width="64" height="64" rx="10" fill="url(#paint0_linear_519_733)"/>
<path d="M12.6041 30.8501C16.6963 28.6048 21.2642 26.7307 25.5322 24.8472C32.8748 21.762 40.2467 18.7304 47.6929 15.9079C49.1416 15.427 51.7448 14.9568 52 17.0954C51.8602 20.1227 51.2852 23.1323 50.8909 26.1419C49.8899 32.7603 48.733 39.3559 47.6048 45.9525C47.216 48.1498 44.4528 49.2873 42.6848 47.8811C38.4357 45.0221 34.154 42.1909 29.9592 39.2655C28.5851 37.8747 29.8593 35.8773 31.0865 34.8841C34.5861 31.4485 38.2976 28.5296 41.6143 24.9165C42.509 22.7644 39.8655 24.5781 38.9935 25.1339C34.2025 28.4227 29.5287 31.9123 24.4774 34.8028C21.8972 36.2176 18.89 35.0085 16.311 34.2191C13.9986 33.2654 10.6103 32.3042 12.6041 30.8501Z" fill="white"/>
<defs>
<linearGradient id="paint0_linear_519_733" x1="64" y1="32" x2="0" y2="32" gradientUnits="userSpaceOnUse">
<stop stop-color="#0E468C"/>
<stop offset="1" stop-color="#9AB6DF"/>
</linearGradient>
</defs>
</svg>
