<svg width="64" height="64" viewBox="0 0 64 64" fill="none" xmlns="http://www.w3.org/2000/svg">
<rect width="64" height="64" rx="10" fill="url(#paint0_linear_519_728)"/>
<path d="M32.0088 12C37.3505 12.002 42.3716 14.0845 46.1475 17.8633C49.9235 21.6423 52.0021 26.6657 52 32.0078C51.9954 43.0314 43.024 51.9998 32.001 52H31.9922C28.4034 51.9986 24.8831 51.0354 21.8125 49.2139L21.083 48.7803L13.5127 50.7646L15.5332 43.3877L15.0576 42.6309C13.0557 39.4478 11.9985 35.7688 12 31.9912C12.0044 20.9681 20.9769 12 32.0088 12ZM24.042 21.46C23.6458 21.46 23.0018 21.6091 22.457 22.2041C21.9122 22.7992 20.377 24.2372 20.377 27.1621C20.377 30.0867 22.5058 32.912 22.8037 33.3096C23.1008 33.7064 26.9943 39.7098 32.9561 42.2842C34.374 42.8965 35.4815 43.2623 36.3447 43.5361C37.7683 43.9885 39.0641 43.9246 40.0879 43.7715C41.2299 43.6009 43.6042 42.3335 44.0996 40.9453C44.5945 39.5571 44.5947 38.3672 44.4463 38.1191C44.2978 37.8712 43.901 37.7224 43.3066 37.4248C42.7117 37.1271 39.7913 35.6899 39.2461 35.4912C38.7014 35.293 38.3043 35.1943 37.9082 35.7891C37.5119 36.384 36.3742 37.7223 36.0273 38.1191C35.6806 38.5157 35.3333 38.5652 34.7393 38.2676C34.1447 37.9701 32.2297 37.3428 29.96 35.3184C28.1932 33.7424 27 31.7962 26.6533 31.2012C26.3068 30.6064 26.6166 30.2846 26.9141 29.9883C27.1814 29.722 27.5086 29.2941 27.8057 28.9473C28.1028 28.6003 28.2023 28.3514 28.4004 27.9551C28.5982 27.5585 28.4991 27.2114 28.3506 26.9141C28.2016 26.6154 27.0138 23.692 26.5186 22.502C26.0361 21.3431 25.5454 21.4998 25.1807 21.4814C24.8345 21.4641 24.438 21.46 24.042 21.46Z" fill="white"/>
<defs>
<linearGradient id="paint0_linear_519_728" x1="64" y1="32" x2="0" y2="32" gradientUnits="userSpaceOnUse">
<stop stop-color="#0E468C"/>
<stop offset="1" stop-color="#9AB6DF"/>
</linearGradient>
</defs>
</svg>
