<svg width="135" height="57" viewBox="0 0 135 57" fill="none" xmlns="http://www.w3.org/2000/svg">
<path fill-rule="evenodd" clip-rule="evenodd" d="M64.0446 30.7097C51.2598 19.2691 15.6967 18.3161 0 42.2907H36.6242C39.5313 36.892 51.4519 29.9779 64.0446 30.7097Z" fill="white"/>
<path fill-rule="evenodd" clip-rule="evenodd" d="M135 42.5194C108.084 -10.1331 33.7241 -15.4837 1.27734 35.4466C40.7379 -12.3901 102.921 1.25747 127.617 42.5194H135Z" fill="white"/>
<path fill-rule="evenodd" clip-rule="evenodd" d="M16.8672 24.1304C51.4046 10.2963 74.1542 30.3714 84.0942 42.3399H121.309C101.207 8.68359 51.5241 -4.35043 16.8672 24.1304Z" fill="white"/>
<path d="M0 50.7988H1.66908C2.33824 50.7988 2.83725 50.9209 3.16323 51.1633C3.4892 51.4066 3.65267 51.7931 3.65267 52.324C3.65267 52.6788 3.57715 52.975 3.42707 53.2144C3.27603 53.4539 3.07624 53.6058 2.82674 53.6683V53.7116C3.12212 53.7914 3.3525 53.9462 3.51693 54.1741C3.68135 54.403 3.76452 54.7252 3.76452 55.1416C3.76452 55.6897 3.59627 56.1224 3.26265 56.4388C2.92711 56.7561 2.4673 56.9138 1.88322 56.9138H0.000956881V50.7969L0 50.7988ZM1.24369 53.2567H1.69489C1.93866 53.2567 2.11742 53.1914 2.23118 53.0596C2.34493 52.9288 2.40134 52.7365 2.40134 52.4855C2.40134 52.023 2.15757 51.7912 1.66908 51.7912H1.24369V53.2558V53.2567ZM1.24369 54.2251V55.9041H1.77997C2.02947 55.9041 2.21302 55.8301 2.32964 55.682C2.44627 55.5339 2.50458 55.3195 2.50458 55.0396C2.50458 54.7829 2.4434 54.5828 2.32104 54.4396C2.19867 54.2972 2.00748 54.2251 1.74651 54.2251H1.24464H1.24369Z" fill="white"/>
<path d="M9.12312 53.832C9.12312 54.4715 9.04091 55.0283 8.87649 55.5024C8.71206 55.9765 8.45874 56.3419 8.11842 56.5987C7.7781 56.8554 7.34315 56.9843 6.81546 56.9843C6.28778 56.9843 5.86908 56.8545 5.52589 56.5948C5.18271 56.3342 4.92652 55.9688 4.75923 55.4986C4.59098 55.0274 4.50781 54.4687 4.50781 53.8234C4.50781 52.8243 4.70091 52.0511 5.08712 51.5059C5.47332 50.9606 6.05262 50.6875 6.82503 50.6875C7.34697 50.6875 7.77906 50.8154 8.11938 51.0683C8.45969 51.3222 8.71206 51.6857 8.87744 52.1569C9.04187 52.6281 9.12408 53.1858 9.12408 53.832H9.12312ZM5.79356 53.832C5.79356 54.5177 5.87672 55.0379 6.04497 55.3957C6.21226 55.7534 6.46941 55.9313 6.81546 55.9313C7.49705 55.9313 7.83737 55.2312 7.83737 53.832C7.83737 52.4329 7.49992 51.7251 6.82407 51.7251C6.47133 51.7251 6.21226 51.9049 6.04497 52.2646C5.87672 52.6242 5.79356 53.1474 5.79356 53.832Z" fill="white"/>
<path d="M13.9333 56.9148H12.7078V51.8864H11.771C11.7423 52.1951 11.7127 52.523 11.6821 52.8711C11.6505 53.2192 11.6152 53.5635 11.575 53.903C11.5349 54.2434 11.4976 54.5559 11.4603 54.8415C11.424 55.1271 11.3876 55.355 11.3542 55.5262C11.2519 56.0291 11.1028 56.3994 10.9068 56.6359C10.7108 56.8725 10.4087 56.9908 9.9996 56.9908C9.8801 56.9908 9.77495 56.9841 9.68509 56.9696C9.59332 56.9552 9.51206 56.934 9.4375 56.9052V55.8945C9.54552 55.9455 9.65355 55.9714 9.76157 55.9714C9.89158 55.9714 9.99577 55.8945 10.0723 55.7397C10.1487 55.5858 10.2185 55.3031 10.2806 54.8915C10.3036 54.7367 10.3313 54.5184 10.3657 54.2357C10.4001 53.953 10.4365 53.6251 10.4766 53.251C10.5168 52.8769 10.556 52.4797 10.5961 52.0605C10.6363 51.6412 10.6726 51.22 10.707 50.7969H13.9343V56.9138L13.9333 56.9148Z" fill="white"/>
<path d="M16.0199 53.727L14.4961 50.7969H15.7991L17.2464 53.7356V50.7969H18.4299V53.7356L19.8772 50.7969H21.1887L19.6477 53.727L21.2231 56.9138H19.8867L18.4299 53.7866V56.9138H17.2464V53.7866L15.7895 56.9138H14.4531L16.0199 53.727Z" fill="white"/>
<path d="M23.8591 51.7321C23.6211 51.7321 23.4203 51.8225 23.2588 52.0013C23.0972 52.1812 22.9749 52.4331 22.8927 52.7553C22.8104 53.0784 22.7693 53.4476 22.7693 53.864C22.7693 54.5381 22.8659 55.0545 23.059 55.4142C23.2521 55.7738 23.536 55.9537 23.9107 55.9537C24.1096 55.9537 24.3017 55.9239 24.49 55.8642C24.6774 55.8037 24.8676 55.7258 25.0607 55.6286V56.6826C24.6698 56.8884 24.2319 56.9913 23.7492 56.9913C23.0055 56.9913 22.4434 56.7143 22.0629 56.1604C21.6824 55.6065 21.4922 54.8382 21.4922 53.8563C21.4922 53.2447 21.582 52.7024 21.7599 52.2283C21.9386 51.7542 22.1996 51.382 22.5437 51.1099C22.8869 50.8387 23.3056 50.7031 23.7998 50.7031C24.0493 50.7031 24.3008 50.7368 24.5541 50.806C24.8065 50.8743 25.0407 50.9714 25.2567 51.0974L24.8992 52.0917C24.7348 51.9888 24.5675 51.9032 24.3973 51.835C24.2272 51.7667 24.0484 51.7321 23.861 51.7321H23.8591Z" fill="white"/>
<path d="M30.1555 56.9138H28.776L27.2857 53.7703V56.9138H26.043V50.7969H27.2857V53.7097L28.776 50.7969H30.1048L28.495 53.727L30.1555 56.9138Z" fill="white"/>
<path d="M33.5592 56.9059L33.2524 55.4413H31.7448L31.4303 56.9059H30.1016L31.6856 50.7812H33.2782L34.8794 56.9059H33.5602H33.5592ZM33.0392 54.396L32.6989 52.8372C32.6587 52.643 32.6214 52.4507 32.588 52.2593C32.5536 52.0679 32.523 51.8842 32.4943 51.7063C32.4714 51.8775 32.4417 52.0602 32.4044 52.2545C32.3681 52.4487 32.3289 52.6401 32.2897 52.8286L31.958 54.396H33.0401H33.0392Z" fill="white"/>
<path d="M37.284 54.5319L36.2458 56.9129H34.875L36.2038 54.2318C35.9371 54.0895 35.7248 53.878 35.569 53.5981C35.4132 53.3183 35.3348 52.9779 35.3348 52.5788C35.3348 51.3912 36.0078 50.7969 37.3528 50.7969H38.9282V56.9138H37.6941V54.5328H37.285L37.284 54.5319ZM37.6941 51.8076H37.3872C37.1091 51.8076 36.9074 51.8739 36.7821 52.0085C36.6578 52.1432 36.5948 52.3528 36.5948 52.6384C36.5948 53.2616 36.8557 53.5722 37.3786 53.5722H37.6941V51.8076Z" fill="white"/>
<path d="M41.6992 56.9138V50.7969H45.6674V56.9138H44.4246V51.8345H42.9429V56.9138H41.6992Z" fill="white"/>
<path d="M48.5202 50.7978C49.1616 50.7978 49.6377 50.9623 49.9503 51.2902C50.2619 51.6191 50.4187 52.0884 50.4187 52.699C50.4187 53.0923 50.3518 53.4443 50.2179 53.7529C50.0841 54.0616 49.8748 54.304 49.588 54.4809C49.3012 54.6579 48.9303 54.7473 48.4762 54.7473H48.1187V56.9138H46.875V50.7969H48.5192L48.5202 50.7978ZM48.4523 51.8172H48.1206V53.7279H48.35C48.6119 53.7279 48.8156 53.6491 48.9637 53.4923C49.111 53.3356 49.1855 53.0769 49.1855 52.7173C49.1855 52.1172 48.9408 51.8172 48.4533 51.8172H48.4523Z" fill="white"/>
<path d="M55.6856 53.832C55.6856 54.4715 55.6034 55.0283 55.438 55.5024C55.2736 55.9765 55.0212 56.3419 54.68 56.5987C54.3397 56.8554 53.9057 56.9843 53.378 56.9843C52.8503 56.9843 52.4306 56.8545 52.0874 56.5948C51.7443 56.3342 51.4881 55.9688 51.3208 55.4986C51.1535 55.0274 51.0703 54.4687 51.0703 53.8234C51.0703 52.8243 51.2634 52.0511 51.6496 51.5059C52.0358 50.9606 52.6142 50.6875 53.3866 50.6875C53.9095 50.6875 54.3406 50.8154 54.6809 51.0683C55.0222 51.3222 55.2746 51.6857 55.439 52.1569C55.6034 52.6281 55.6866 53.1858 55.6866 53.832H55.6856ZM52.3561 53.832C52.3561 54.5177 52.4392 55.0379 52.6065 55.3957C52.7738 55.7534 53.031 55.9313 53.378 55.9313C54.0586 55.9313 54.3999 55.2312 54.3999 53.832C54.3999 52.4329 54.0615 51.7251 53.3866 51.7251C53.0338 51.7251 52.7748 51.9049 52.6075 52.2646C52.4402 52.6242 52.357 53.1474 52.357 53.832H52.3561Z" fill="white"/>
<path d="M58.9116 56.9138L57.7281 52.3143H57.6946C57.7118 52.5596 57.7271 52.8259 57.7415 53.1106C57.7558 53.3962 57.7625 53.6443 57.7625 53.8558V56.9138H56.6211V50.7969H58.316L59.4402 55.1319H59.466L60.5978 50.7969H62.2755V56.9138H61.1169V53.8299C61.1169 53.6135 61.1207 53.3673 61.1303 53.0933C61.1389 52.8192 61.1485 52.5624 61.1599 52.322H61.1341L59.9335 56.9138H58.9116Z" fill="white"/>
<path d="M63.4072 56.9138V50.7969H64.6499V53.1269H64.8975C65.5734 53.1269 66.0839 53.2866 66.4299 53.6068C66.776 53.927 66.949 54.3838 66.949 54.9771C66.949 55.6002 66.7731 56.0782 66.4213 56.4119C66.0686 56.7456 65.5638 56.9129 64.9052 56.9129H63.4062L63.4072 56.9138ZM64.6499 55.8945H64.8717C65.4338 55.8945 65.7149 55.5974 65.7149 55.0031C65.7149 54.6944 65.6441 54.4751 65.5017 54.3434C65.3602 54.2126 65.147 54.1463 64.8631 54.1463H64.6499V55.8945ZM67.5627 56.9138V50.7969H68.7882V56.9138H67.5627Z" fill="white"/>
<path d="M76.2501 56.9138H69.9141V50.7969H71.1578V55.8772H72.4693V50.7969H73.6958V55.8772H75.0236V50.7969H76.2501V56.9138Z" fill="white"/>
<path d="M81.3786 56.9148H80.1521V51.8864H79.2153C79.1866 52.1951 79.157 52.523 79.1255 52.8711C79.0939 53.2192 79.0595 53.5635 79.0194 53.903C78.9792 54.2434 78.941 54.5559 78.9046 54.8415C78.8683 55.1271 78.832 55.355 78.7976 55.5262C78.6953 56.0291 78.5471 56.3994 78.3511 56.6359C78.1552 56.8725 77.8531 56.9908 77.444 56.9908C77.3245 56.9908 77.2193 56.9841 77.1294 56.9696C77.0386 56.9552 76.9564 56.934 76.8828 56.9052V55.8945C76.9899 55.9455 77.0979 55.9714 77.2059 55.9714C77.3359 55.9714 77.4401 55.8945 77.5166 55.7397C77.594 55.5858 77.6629 55.3031 77.725 54.8915C77.7479 54.7367 77.7757 54.5184 77.8101 54.2357C77.8435 53.953 77.8808 53.6251 77.92 53.251C77.9602 52.8769 77.9994 52.4797 78.0395 52.0605C78.0787 51.6412 78.116 51.22 78.1494 50.7969H81.3767V56.9138L81.3786 56.9148Z" fill="white"/>
<path d="M85.3871 56.9138H82.5078V50.7969H85.3871V51.8162H83.7515V53.2298H85.2753V54.2492H83.7515V55.8772H85.3871V56.9138Z" fill="white"/>
<path d="M90.4032 56.9138H89.1768V54.2501H87.5669V56.9138H86.3242V50.7969H87.5669V53.2125H89.1768V50.7969H90.4032V56.9138Z" fill="white"/>
<path d="M95.6142 56.9138H94.3877V54.2501H92.7779V56.9138H91.5352V50.7969H92.7779V53.2125H94.3877V50.7969H95.6142V56.9138Z" fill="white"/>
<path d="M99.6442 56.9059L99.3374 55.4413H97.8308L97.5163 56.9059H96.1875L97.7715 50.7812H99.3641L100.965 56.9059H99.6452H99.6442ZM99.1242 54.396L98.7839 52.8372C98.7437 52.643 98.7074 52.4507 98.673 52.2593C98.6395 52.0679 98.608 51.8842 98.5793 51.7063C98.5563 51.8775 98.5267 52.0602 98.4904 52.2545C98.4531 52.4487 98.4149 52.6401 98.3757 52.8286L98.044 54.396H99.1251H99.1242Z" fill="white"/>
<path d="M103.363 54.5319L102.324 56.9129H100.953L102.282 54.2318C102.015 54.0895 101.804 53.878 101.648 53.5981C101.491 53.3183 101.414 52.9779 101.414 52.5788C101.414 51.3912 102.087 50.7969 103.432 50.7969H105.007V56.9138H103.772V54.5328H103.364L103.363 54.5319ZM103.771 51.8076H103.464C103.186 51.8076 102.985 51.8739 102.86 52.0085C102.735 52.1432 102.673 52.3528 102.673 52.6384C102.673 53.2616 102.934 53.5722 103.457 53.5722H103.771V51.8076Z" fill="white"/>
<path d="M110.881 50.7978V51.8345H109.033V56.9138H107.789V50.7969H110.881V50.7978Z" fill="white"/>
<path d="M113.254 50.7978C113.895 50.7978 114.372 50.9623 114.684 51.2902C114.996 51.6191 115.152 52.0884 115.152 52.699C115.152 53.0923 115.085 53.4443 114.952 53.7529C114.818 54.0616 114.608 54.304 114.321 54.4809C114.035 54.6579 113.665 54.7473 113.21 54.7473H112.852V56.9138H111.609V50.7969H113.253L113.254 50.7978ZM113.185 51.8172H112.853V53.7279H113.083C113.344 53.7279 113.549 53.6491 113.697 53.4923C113.844 53.3356 113.918 53.0769 113.918 52.7173C113.918 52.1172 113.673 51.8172 113.186 51.8172H113.185Z" fill="white"/>
<path d="M119.872 50.7969L118.425 55.1233C118.295 55.5291 118.149 55.8714 117.987 56.1513C117.826 56.4311 117.622 56.6427 117.378 56.786C117.135 56.9283 116.819 57.0004 116.433 57.0004C116.161 57.0004 115.905 56.96 115.666 56.8802V55.8176C115.769 55.8695 115.874 55.9061 115.981 55.9291C116.088 55.9522 116.197 55.9628 116.305 55.9628C116.521 55.9628 116.682 55.9022 116.79 55.7791C116.899 55.656 116.989 55.4579 117.063 55.1839L115.453 50.7978H116.747L117.42 52.9057C117.478 53.0769 117.528 53.2481 117.573 53.4193C117.619 53.5904 117.656 53.7703 117.684 53.9587H117.735C117.769 53.776 117.805 53.6058 117.842 53.4491C117.878 53.2923 117.922 53.125 117.974 52.9481L118.588 50.7978H119.873L119.872 50.7969Z" fill="white"/>
<path d="M120.43 56.9138V50.7969H124.398V56.9138H123.155V51.8345H121.673V56.9138H120.431H120.43Z" fill="white"/>
<path d="M125.609 56.9138V50.7969H129.578V56.9138H128.335V51.8345H126.853V56.9138H125.61H125.609Z" fill="white"/>
<path d="M133.675 56.9059L133.369 55.4413H131.862L131.548 56.9059H130.219L131.803 50.7812H133.395L134.997 56.9059H133.676H133.675ZM133.156 54.396L132.816 52.8372C132.776 52.643 132.74 52.4507 132.705 52.2593C132.672 52.0679 132.64 51.8842 132.611 51.7063C132.589 51.8775 132.559 52.0602 132.523 52.2545C132.485 52.4487 132.447 52.6401 132.408 52.8286L132.076 54.396H133.157H133.156Z" fill="white"/>
</svg>
